<svg xmlns="http://www.w3.org/2000/svg" width="104" height="125" viewBox="0 0 104 125">
  <g fill="none">
    <path fill="#FF3E00" d="M97.328731,16.5299981 C85.7278595,-0.0738607319 62.8161384,-4.99530735 46.2498708,5.55958938 L17.1554429,24.1028016 C9.20812603,29.1025442 3.73410842,37.2183127 2.07576016,46.4599118 C0.687952111,54.1587061 1.90780363,62.1004592 5.54218979,69.0278456 C3.05180668,72.8056655 1.35327207,77.0492129 0.54924164,81.5020173 C-1.1251842,90.9210393 1.06502639,100.617482 6.62542116,108.402319 C18.2287467,125.007739 41.1406909,129.927067 57.7043928,119.372728 L86.7987092,100.829515 C94.7465188,95.8302814 100.2207,87.7142704 101.878392,78.4724051 C103.265828,70.7736512 102.046778,62.8320668 98.4140817,55.9039136 C100.903777,52.1261601 102.601595,47.882792 103.40491,43.4302996 C105.08043,34.0112524 102.890124,24.3143877 97.328731,16.5299981"/>
    <path fill="#FFF" d="M43.4074342,109.964532 C34.0295442,112.402682 24.1264316,108.731774 18.603544,100.770172 C15.2589133,96.0889271 13.9414121,90.2575586 14.9486002,84.5930918 C15.1174117,83.6724902 15.3497237,82.7646731 15.6438717,81.8761454 L16.1917898,80.2053968 L17.6822787,81.300229 C21.1247332,83.8295831 24.9737301,85.7526858 29.0634029,86.9866639 L30.1447379,87.3147231 L30.0452382,88.3939388 C29.9130609,89.9292554 30.3287849,91.4617831 31.2187109,92.7198369 C32.8808176,95.1181575 35.8626213,96.224888 38.686995,95.4917759 C39.3192626,95.3227515 39.9219106,95.0578798 40.4739754,94.7063746 L69.5685148,76.1652818 C71.0079678,75.2588653 72.0000189,73.789025 72.3021933,72.115016 C72.6037855,70.4077349 72.2068502,68.6508664 71.2005567,67.2390804 C69.5374727,64.8403078 66.5549839,63.7331128 63.7294839,64.4655798 C63.0980061,64.6345959 62.4961198,64.8992754 61.9447345,65.2504234 L50.8421427,72.3279589 C49.0165061,73.4887321 47.0241805,74.3636567 44.9341758,74.9224268 C35.5560209,77.3608445 25.6525188,73.6898639 20.1295048,65.7279554 C16.7849039,61.0467391 15.467404,55.2154171 16.474561,49.5509863 C17.4716965,43.9937649 20.7638426,39.1137354 25.5433192,36.1081419 L54.6359623,17.5654874 C56.4623978,16.4027763 58.4561882,15.52675 60.5479449,14.9678961 C69.9259048,12.5296439 79.829138,16.2005629 85.3520582,24.162256 C88.6966419,28.8435224 90.0141387,34.674871 89.007002,40.3393367 C88.8374625,41.2597784 88.6051632,42.1675458 88.3117305,43.0562831 L87.7638124,44.7270316 L86.2739928,43.6338726 C82.8318069,41.1030285 78.9824328,39.1790394 74.8920878,37.9449837 L73.8108643,37.6168129 L73.9103641,36.5375972 C74.0414729,35.0024116 73.6258456,33.4702799 72.7368913,32.2118107 C71.0747847,29.8134901 68.0929809,28.7067596 65.2686072,29.4398717 C64.6363397,29.6088961 64.0336917,29.8737678 63.4816268,30.225273 L34.3865297,48.7671467 C32.9468269,49.6729903 31.9551236,51.1432151 31.6545244,52.8174125 C31.3510658,54.5246133 31.7473342,56.2821118 32.7540416,57.6939057 C34.4171256,60.0926784 37.3996144,61.1998734 40.2251144,60.4674064 C40.857268,60.2980576 41.459868,60.033207 42.0120948,59.6820051 L53.1132364,52.6071467 C54.9380828,51.4448429 56.9303193,50.5691437 59.020534,50.0105593 C68.3986523,47.5722272 78.3020748,51.2431949 83.8250935,59.2050308 C87.1696944,63.886247 88.4871943,69.7175691 87.4800373,75.3819998 C86.4822747,80.9395208 83.1903591,85.8199779 78.4112791,88.8269637 L49.3190822,107.366941 C47.4926467,108.529652 45.4988563,109.405678 43.4070996,109.964532"/>
  </g>
</svg>