<?xml version="1.0" encoding="UTF-8" standalone="no"?>
<!-- Created with Inkscape (http://www.inkscape.org/) -->

<svg
   xmlns:dc="http://purl.org/dc/elements/1.1/"
   xmlns:cc="http://creativecommons.org/ns#"
   xmlns:rdf="http://www.w3.org/1999/02/22-rdf-syntax-ns#"
   xmlns:svg="http://www.w3.org/2000/svg"
   xmlns="http://www.w3.org/2000/svg"
   xmlns:sodipodi="http://sodipodi.sourceforge.net/DTD/sodipodi-0.dtd"
   xmlns:inkscape="http://www.inkscape.org/namespaces/inkscape"
   version="1.1"
   width="141.66559"
   height="145.8324"
   id="svg2816"
   viewbox='0 0 141.66559 145.8324'
   xml:space="preserve"
   inkscape:version="0.48.2 r9819"
   sodipodi:docname="AJAX1.svg"><metadata
     id="metadata10"><rdf:RDF><cc:Work
         rdf:about=""><dc:format>image/svg+xml</dc:format><dc:type
           rdf:resource="http://purl.org/dc/dcmitype/StillImage" /></cc:Work></rdf:RDF></metadata><sodipodi:namedview
     pagecolor="#ffffff"
     bordercolor="#666666"
     borderopacity="1"
     objecttolerance="10"
     gridtolerance="10"
     guidetolerance="10"
     inkscape:pageopacity="0"
     inkscape:pageshadow="2"
     inkscape:window-width="1280"
     inkscape:window-height="1004"
     id="namedview8"
     showgrid="false"
     fit-margin-top="0.2"
     fit-margin-left="0.2"
     fit-margin-right="0.2"
     fit-margin-bottom="0.2"
     inkscape:zoom="25.963955"
     inkscape:cx="115.03616"
     inkscape:cy="140.28688"
     inkscape:window-x="-8"
     inkscape:window-y="-8"
     inkscape:window-maximized="1"
     inkscape:current-layer="g2914" /><defs
     id="defs2820" /><g
     transform="matrix(1.25,0,0,-1.25,-147.39075,566.86341)"
     id="g2826"><g
       id="g2914"><path
         d="m 226.41,449.16 c -8.199,7.869 -25.476,4.222 -44.505,-7.734 -1.955,0.201 -3.939,0.316 -5.953,0.316 -28.716,0 -51.996,-21.078 -51.996,-47.078 0,-0.247 0.016,-0.49 0.021,-0.737 11.716,18.6 27.433,31.481 41.722,35.598 -4.587,-3.86 -9.158,-8.132 -13.615,-12.777 -11.268,-11.74 -20.12,-24.098 -25.973,-35.502 -9.015,-17.566 -10.891,-32.861 -3.357,-40.092 8.081,-7.756 24.984,-4.32 43.689,7.233 3.085,-0.516 6.259,-0.799 9.509,-0.799 2.329,0 4.62,0.143 6.867,0.412 20.497,2.451 37.224,15.711 42.974,33.25 l -34.528,0 c -2.13,-6.35 -8.116,-10.931 -15.183,-10.931 -8.849,0 -16.023,7.174 -16.023,16.024 l 0,1.614 67.354,0 c 0.345,2.191 0.534,4.43 0.534,6.707 0,20.572 -14.578,38.05 -34.886,44.457 14.255,8.002 26.411,10.205 32.271,4.582 3.58,-3.436 4.334,-9.344 2.691,-16.744 l 1.897,0 c 2.264,9.68 1.298,17.586 -3.51,22.201 z M 162.895,349.086 c -14.727,-8.51 -27.354,-10.971 -33.364,-5.204 -5.225,5.014 -4.433,15.291 1.051,27.79 6.843,-11.045 18.453,-19.341 32.313,-22.586 z m -2.817,53.777 c 0.2,8.675 7.281,15.651 16.004,15.651 8.724,0 15.805,-6.976 16.004,-15.651 l -32.008,0"
         id="path2830"
         style="fill:#37a5e2;fill-opacity:1;fill-rule:nonzero;stroke:none"
         inkscape:connector-curvature="0" /></g></g></svg>