<?xml version="1.0" encoding="utf-8"?>
<!-- Generator: Adobe Illustrator 16.0.0, SVG Export Plug-In . SVG Version: 6.00 Build 0)  -->
<!DOCTYPE svg PUBLIC "-//W3C//DTD SVG 1.1//EN" "http://www.w3.org/Graphics/SVG/1.1/DTD/svg11.dtd">
<svg version="1.1" id="Line" xmlns="http://www.w3.org/2000/svg" xmlns:xlink="http://www.w3.org/1999/xlink" x="0px" y="0px"
	 width="702px" height="468px" viewBox="0 0 702 468" enable-background="new 0 0 702 468" xml:space="preserve">
<linearGradient id="SVGID_1_" gradientUnits="userSpaceOnUse" x1="1.9951" y1="234" x2="700.0049" y2="234">
	<stop  offset="0" style="stop-color:#36BEFD"/>
	<stop  offset="1" style="stop-color:#6461F6"/>
</linearGradient>
<path fill="none" stroke="url(#SVGID_1_)" stroke-width="48" stroke-linecap="round" stroke-miterlimit="10" d="M234.014,337.502
	c-9.188,0-18.292-1.193-27.057-3.545c-13.539-3.633-26.531-10.188-37.572-18.955c-10.933-8.682-20.222-19.736-26.863-31.969
	c-6.813-12.549-11.024-26.725-12.18-40.996c-1.188-14.668,0.756-29.659,5.62-43.355c4.671-13.151,12.186-25.547,21.73-35.847
	c9.515-10.269,21.266-18.694,33.982-24.368c13.146-5.865,27.781-8.966,42.325-8.966c3.586,0,7.203,0.184,10.75,0.547
	c14.193,1.452,28.242,5.949,40.627,13.003c12.096,6.889,22.958,16.396,31.414,27.495c8.555,11.229,14.85,24.37,18.203,38.003
	c3.509,14.265,3.951,29.467,1.278,43.964c-2.561,13.884-8.109,27.427-16.047,39.163c-7.806,11.541-18.112,21.643-29.805,29.211
	c-11.912,7.709-25.592,12.986-39.562,15.258C245.323,337.045,239.656,337.502,234.014,337.502
	C234.014,337.502,234.014,337.502,234.014,337.502z M570.998,338h-6.215h-26.65H500.59h-39.085h-31.278h-14.12
	c-14.94,0-29.099,6.24-38.846,17.121c-12.376,13.813-16.449,33.305-10.63,50.865c6.084,18.361,22.291,32.152,41.292,35.137
	c3.765,0.59,7.247,0.877,10.646,0.877h21.281h35.12h39.608h34.746h20.533c4.154,0,7.918-0.318,11.725-0.674
	c11.898-1.107,23.729-4.436,35.166-9.893c21.475-10.246,38.934-27.695,49.156-49.133c10.625-22.271,12.957-47.695,6.57-71.588
	c-6.066-22.697-19.951-42.912-39.094-56.922c-17.434-12.762-39.299-19.79-61.566-19.79h-19.836h-37.801h-34.63h-0.238
	c-0.064,0-0.128,0-0.192,0c-7.594,0-14.766-0.01-20.863-1.207c-13.334-2.618-25.441-10.797-33.215-22.437
	c-3.901-5.841-6.721-12.783-8.154-20.074c-1.492-7.591-0.939-15.579,1.642-23.742c4.497-14.223,14.729-25.905,28.074-32.053
	c6.373-2.936,13.886-4.487,21.729-4.487h3.353h22.485h35.71h39.555h34.021h19.109c6.848,0,13.436-1.16,19.578-3.448
	c16.672-6.206,29.244-20.975,32.814-38.542c3.609-17.757-2.477-36.397-15.879-48.646C649.65,30.746,637.154,26,623.891,26h-6.633
	h-15.867h-23.605h-29.85h-34.594h-37.846h-39.599h-39.858h-38.619h-35.885h-31.655H263.95h-18.707h-9.988
	c-13.158,0-23.905,0.728-33.822,2.288c-20.802,3.273-40.457,9.37-58.42,18.12c-18.023,8.778-34.679,20.118-49.506,33.705
	c-14.775,13.541-27.499,29.094-37.814,46.228c-10.511,17.454-18.368,36.299-23.354,56.01c-5.159,20.397-7.188,41.485-6.027,62.679
	c1.14,20.832,5.375,41.268,12.586,60.732c7.001,18.898,16.719,36.666,28.885,52.811c12.035,15.973,26.277,30.115,42.335,42.037
	c16.245,12.059,34.087,21.652,53.04,28.514c19.537,7.074,39.766,11.68,60.63,12.662c3.03,0.145,6.092,0.215,9.211,0.215
	c6.56,0,13.266-0.314,20.096-0.945c6.583-0.607,12.544-1.428,18.352-2.508c3.41-0.633,6.481-1.338,9.647-2.152"/>
</svg>
