<?xml version="1.0" encoding="utf-8"?>
<!-- Generator: Adobe Illustrator 16.0.0, SVG Export Plug-In . SVG Version: 6.00 Build 0)  -->
<!DOCTYPE svg PUBLIC "-//W3C//DTD SVG 1.1//EN" "http://www.w3.org/Graphics/SVG/1.1/DTD/svg11.dtd">
<svg version="1.1" id="Ebene_1" xmlns="http://www.w3.org/2000/svg" xmlns:xlink="http://www.w3.org/1999/xlink" x="0px" y="0px"
	 width="890.053px" height="792.629px" viewBox="515.064 141.508 890.053 792.629"
	 enable-background="new 515.064 141.508 890.053 792.629" xml:space="preserve">
<g>
	<path fill="#61DAFB" d="M1405.116,537.914c0-58.962-73.838-114.84-187.045-149.491c26.125-115.384,14.514-207.183-36.646-236.573
		c-11.793-6.894-25.581-10.16-40.639-10.16v40.457c8.346,0,15.058,1.633,20.682,4.717c24.674,14.151,35.377,68.033,27.032,137.335
		c-1.995,17.054-5.262,35.015-9.253,53.338c-35.559-8.708-74.383-15.421-115.202-19.774c-24.491-33.563-49.891-64.042-75.471-90.711
		c59.143-54.971,114.658-85.086,152.394-85.086v-40.457c-49.891,0-115.202,35.559-181.24,97.242
		c-66.037-61.32-131.349-96.516-181.239-96.516v40.457c37.554,0,93.251,29.935,152.394,84.542
		c-25.398,26.669-50.798,56.966-74.927,90.529c-41.001,4.354-79.825,11.066-115.384,19.956c-4.173-18.142-7.257-35.74-9.434-52.612
		c-8.527-69.303,1.995-123.185,26.487-137.517c5.442-3.266,12.518-4.717,20.863-4.717v-40.457c-15.239,0-29.027,3.266-41.001,10.16
		c-50.979,29.39-62.409,121.008-36.104,236.029c-112.844,34.832-186.319,90.528-186.319,149.31
		c0,58.962,73.839,114.839,187.046,149.49c-26.125,115.384-14.514,207.184,36.646,236.573c11.793,6.895,25.58,10.16,40.82,10.16
		c49.891,0,115.202-35.559,181.239-97.242c66.037,61.32,131.349,96.517,181.24,96.517c15.239,0,29.027-3.266,41.001-10.16
		c50.979-29.391,62.408-121.008,36.103-236.029C1331.642,652.571,1405.117,596.694,1405.116,537.914L1405.116,537.914z
		 M1168.906,416.906c-6.713,23.402-15.058,47.532-24.491,71.661c-7.438-14.514-15.24-29.027-23.767-43.541
		c-8.346-14.514-17.235-28.665-26.125-42.453C1120.285,406.384,1145.14,411.101,1168.906,416.906L1168.906,416.906z
		 M1085.815,610.119c-14.15,24.492-28.664,47.714-43.723,69.303c-27.031,2.358-54.426,3.629-82.002,3.629
		c-27.395,0-54.789-1.271-81.64-3.447c-15.058-21.589-29.753-44.63-43.904-68.939c-13.788-23.767-26.306-47.896-37.735-72.206
		c11.248-24.311,23.947-48.621,37.555-72.387c14.15-24.492,28.664-47.714,43.723-69.304c27.031-2.358,54.426-3.628,82.002-3.628
		c27.395,0,54.789,1.27,81.64,3.447c15.058,21.589,29.753,44.629,43.903,68.939c13.788,23.767,26.307,47.896,37.736,72.206
		C1111.94,562.043,1099.422,586.354,1085.815,610.119L1085.815,610.119z M1144.415,586.534
		c9.796,24.311,18.142,48.621,25.035,72.206c-23.766,5.806-48.802,10.704-74.745,14.514c8.89-13.97,17.779-28.302,26.125-42.997
		C1129.175,615.743,1136.976,601.048,1144.415,586.534z M960.454,780.111c-16.873-17.417-33.745-36.829-50.436-58.055
		c16.328,0.726,33.019,1.27,49.891,1.27c17.054,0,33.926-0.363,50.436-1.27C994.017,743.282,977.145,762.694,960.454,780.111z
		 M825.477,673.254c-25.763-3.81-50.617-8.527-74.383-14.332c6.712-23.403,15.058-47.532,24.491-71.662
		c7.438,14.514,15.24,29.027,23.767,43.542C807.878,645.315,816.587,659.466,825.477,673.254z M959.546,295.716
		c16.873,17.417,33.745,36.829,50.436,58.055c-16.328-0.726-33.019-1.271-49.891-1.271c-17.054,0-33.926,0.363-50.436,1.271
		C925.983,332.545,942.855,313.133,959.546,295.716z M825.295,402.573c-8.89,13.97-17.779,28.302-26.125,42.997
		c-8.345,14.514-16.146,29.027-23.585,43.541c-9.796-24.311-18.142-48.621-25.035-72.206
		C774.315,411.281,799.352,406.383,825.295,402.573L825.295,402.573z M661.108,629.713
		c-64.223-27.395-105.769-63.316-105.769-91.799c0-28.483,41.546-64.586,105.769-91.8c15.603-6.712,32.656-12.699,50.254-18.323
		c10.341,35.559,23.947,72.568,40.82,110.485c-16.691,37.735-30.116,74.564-40.276,109.941
		C693.946,642.594,676.893,636.426,661.108,629.713L661.108,629.713z M758.713,888.964c-24.673-14.151-35.377-68.033-27.031-137.336
		c1.995-17.054,5.261-35.015,9.252-53.338c35.559,8.708,74.383,15.421,115.203,19.774c24.491,33.563,49.891,64.042,75.471,90.711
		c-59.144,54.971-114.658,85.087-152.394,85.087C771.05,893.681,764.156,892.048,758.713,888.964L758.713,888.964z
		 M1189.044,750.721c8.527,69.303-1.995,123.185-26.487,137.518c-5.442,3.266-12.519,4.717-20.863,4.717
		c-37.554,0-93.251-29.935-152.394-84.543c25.398-26.669,50.798-56.966,74.927-90.528c41.001-4.354,79.825-11.067,115.384-19.957
		C1183.783,716.251,1187.049,733.849,1189.044,750.721z M1258.892,629.713c-15.603,6.713-32.656,12.699-50.254,18.323
		c-10.341-35.559-23.947-72.568-40.82-110.485c16.691-37.735,30.116-74.564,40.276-109.941c17.96,5.624,35.014,11.793,50.979,18.505
		c64.223,27.395,105.768,63.316,105.768,91.8C1364.66,566.396,1323.114,602.5,1258.892,629.713L1258.892,629.713z"/>
	<circle fill="#61DAFB" cx="959.909" cy="537.914" r="82.91"/>
	<path fill="#61DAFB" d="M1140.604,141.69"/>
</g>
</svg>
