<svg fill="none" height="156" viewBox="0 0 588 156" width="588" xmlns="http://www.w3.org/2000/svg"><path d="m171.54 78v-27.6101c0-3.6-.66-6.6998-1.97-9.2998s-3.16-4.5902-5.53-5.9602-5.13-2.0598-8.27-2.0598c-3.37 0-6.31.7898-8.81 2.3598-2.01 1.26-3.64 2.9601-4.91 5.0701v-6.3999h-9.82v43.8999h10.12v-25.4199c0-2.06.42-3.89 1.27-5.51.84-1.61 2.04-2.8701 3.58-3.7701s3.31-1.35 5.32-1.35c1.86 0 3.46.3899 4.8 1.1799s2.37 1.9201 3.09 3.4101c.71 1.49 1.07 3.2899 1.07 5.3999v26.0701h10.07zm20.3-1.5c1.87 1 3.98 1.5 6.32 1.5h9.47v-8.79h-7.46c-1.2 0-2.19-.39-2.98-1.18s-1.18-1.78-1.18-2.98l-.04-22.1601h11.66l.04-8.7898h-11.66v-10.7202h-9.43v7.1201c0 1.06-.33 1.9201-.99 2.5901s-1.53 1.01-2.62 1.01h-4.8l-.04 8.7898h7.72l.04 23.4502c0 2.23.52 4.23 1.56 6s2.5 3.1599 4.37 4.1599zm-71.79-58.52h-10.93v60.02h10.93zm115.28 61.05c3.4 0 6.5-.5301 9.3-1.5901s5.19-2.56 7.16-4.5 3.47-4.2699 4.5-6.9899h-11.02c-1.11 1.49-2.52 2.6399-4.2 3.4699-1.69.83-3.59 1.24-5.7 1.24-2.4 0-4.55-.58-6.45-1.76-1.9-1.17-3.39-2.8099-4.46-4.9099-.85-1.67-1.36-3.5301-1.55-5.5501h34.63v-2.4399c0-4.46-.94-8.4199-2.81-11.8999-1.87-3.47-4.49-6.1801-7.87-8.1201-3.37-1.94-7.22-2.9199-11.53-2.9199s-8.08.9899-11.55 2.9799-6.21 4.72-8.21 8.21-3 7.3899-3 11.7c0 4.31.99 8.3601 2.98 11.8801 1.99 3.51 4.7 6.26 8.15 8.23 3.44 1.97 7.32 2.9599 11.64 2.9599zm-10.91-31.4001c1.07-2.04 2.56-3.6398 4.46-4.7998s4.05-1.74 6.45-1.74 4.52.5998 6.37 1.7998 3.27 2.87 4.27 4.99c.55 1.18.94 2.45 1.18 3.79h-24.07c.25-1.44.69-2.7998 1.34-4.0498zm321.9-29.6499h-11.53l-21.78 60.02h11.06l4.72-14.3999h24.09l5.1 14.3999h10.8zm-14.88 37.2099 8.1-24.05.9-3.73.94 3.73 8.62 24.05zm-199.43 2.3201c0 2.12-.46 3.9899-1.39 5.6199s-2.22 2.89-3.86 3.79-3.54 1.3501-5.68 1.3501h-12.48v9.73h12.69c4.23 0 7.96-.8099 11.19-2.4399s5.73-3.9202 7.5-6.8601c1.77-2.94 2.66-6.36 2.66-10.25v-40.47h-10.63zm47.15 20.49h10.93v-60.02h-10.93zm96.03-25.55h29.67v-9.2601h-29.67v-15.7299h32.58v-9.47h-43v60.02h43.86v-9.47h-33.44v-16.08zm-155.87-32.75h-11.1v10.03h11.1zm121.51 2.1401c-4.47-2.57-9.54-3.8601-15.2-3.8601h-22.51v60.02h22.51c5.66 0 10.72-1.2901 15.2-3.8601 4.47-2.57 7.97-6.1299 10.48-10.6699s3.77-9.7 3.77-15.48-1.26-10.93-3.77-15.48c-2.52-4.54-6.01-8.0999-10.48-10.6699zm1.03 37.1299c-1.53 3.12-3.7 5.5199-6.52 7.1999-2.82 1.69-6.08 2.5301-9.8 2.5301h-11.75v-41.41h11.75c3.72 0 6.98.8401 9.8 2.5301 2.81 1.69 4.99 4.0899 6.52 7.1999 1.53 3.12 2.29 6.77 2.29 10.98s-.76 7.86-2.29 10.97zm-176 19.03h10.12v-60.02h-10.12zm31.55-60.02h-10.12v60.02h10.12zm21.52 42.8301v-27.95h-10.33v27.95zm-201.85 67.1799c0 .56-.12 1.06-.35 1.49s-.56.76-.98.99-.91.35-1.48.35h-4.21v4.12h4.72c1.34 0 2.53-.27 3.56-.82s1.82-1.32 2.38-2.32.84-2.16.84-3.48v-18.58h-4.46v18.25zm36.68-15.98h-3.96v2.99c0 .44-.14.81-.41 1.09-.28.28-.64.42-1.1.42h-2.02l-.02 3.69h3.24l.02 9.85c0 .94.22 1.78.66 2.52s1.05 1.33 1.84 1.75 1.67.63 2.65.63h3.98v-3.69h-3.13c-.5 0-.92-.16-1.25-.49s-.5-.75-.5-1.25l-.02-9.31h4.9l.02-3.69h-4.9v-4.5zm-13.95 5.29c-1.42-.82-3.03-1.22-4.84-1.22s-3.39.42-4.85 1.25-2.61 1.98-3.45 3.45c-.84 1.46-1.26 3.1-1.26 4.91s.42 3.51 1.25 4.99 1.97 2.63 3.42 3.46 3.08 1.24 4.89 1.24c1.43 0 2.73-.22 3.91-.67 1.18-.44 2.18-1.07 3.01-1.89s1.46-1.79 1.89-2.93h-4.63c-.47.62-1.06 1.11-1.76 1.46-.71.35-1.51.52-2.39.52-1.01 0-1.91-.25-2.71-.74s-1.42-1.18-1.87-2.06c-.36-.7-.57-1.48-.65-2.33h14.54v-1.03c0-1.87-.39-3.54-1.18-4.99-.79-1.46-1.89-2.6-3.3-3.41zm-9.98 6.59c.11-.6.29-1.18.56-1.7.45-.86 1.07-1.53 1.87-2.02s1.7-.73 2.71-.73 1.9.25 2.67.76 1.37 1.2 1.79 2.1c.23.49.39 1.03.5 1.59h-10.11zm150.78 11.05h4.59v-25.2h-4.59zm-36.36-18c-1-.58-2.15-.86-3.47-.86-1.42 0-2.65.33-3.7.99-.85.53-1.53 1.25-2.06 2.15v-2.7h-4.12v18.43h4.25v-10.67c0-.86.18-1.63.53-2.31s.85-1.21 1.5-1.58 1.39-.57 2.23-.57c.78 0 1.45.17 2.02.5.56.33 1 .81 1.3 1.43s.45 1.38.45 2.27v10.94h4.23v-11.59c0-1.51-.28-2.81-.83-3.91-.55-1.09-1.33-1.93-2.32-2.5zm62.43-5.58c-1.88-1.08-4.01-1.62-6.38-1.62h-9.45v25.2h9.45c2.38 0 4.5-.54 6.38-1.62s3.34-2.57 4.4-4.48 1.58-4.07 1.58-6.5-.53-4.59-1.58-6.5c-1.06-1.91-2.52-3.4-4.4-4.48zm.43 15.59c-.64 1.31-1.55 2.32-2.74 3.02-1.18.71-2.55 1.06-4.11 1.06h-4.93v-17.39h4.93c1.56 0 2.93.35 4.11 1.06s2.09 1.72 2.74 3.02.96 2.84.96 4.61-.32 3.3-.96 4.61zm-43.03-1.86c-.73-.52-1.58-.86-2.56-1.03l-4.05-.7c-.47-.08-.85-.2-1.16-.36s-.54-.35-.69-.59c-.16-.24-.23-.52-.23-.85 0-.43.13-.82.38-1.15s.61-.6 1.07-.78c.46-.19.99-.28 1.59-.28s1.1.1 1.57.29.86.46 1.15.8.48.75.55 1.21h4.23c-.08-1.13-.45-2.11-1.11-2.95-.65-.84-1.54-1.49-2.65-1.94-1.11-.46-2.36-.68-3.75-.68s-2.67.24-3.75.73c-1.09.49-1.92 1.16-2.51 2.02s-.88 1.83-.88 2.92c0 .89.2 1.7.6 2.45.4.74.97 1.37 1.7 1.86s1.59.83 2.57.98l4.09.68c.38.06.72.18 1.02.37.29.19.52.42.68.69.16.28.24.58.24.92 0 .46-.15.86-.44 1.2s-.71.61-1.23.8c-.53.19-1.12.29-1.78.29-.71 0-1.33-.09-1.86-.28s-.97-.45-1.3-.8-.53-.77-.58-1.26h-4.25c.07 1.13.46 2.13 1.16 3s1.65 1.54 2.83 2.02c1.19.47 2.53.71 4.01.71s2.7-.25 3.86-.74 2.07-1.19 2.74-2.08 1-1.9 1-3.02c0-.9-.2-1.74-.58-2.51-.39-.77-.95-1.42-1.68-1.93zm57.21-.88h12.46v-3.89h-12.46v-6.61h13.68v-3.98h-18.05v25.2h18.41v-3.98h-14.04v-6.75zm-129.22-6.81c-.7.48-1.29 1.12-1.76 1.9v-2.79h-4.21v18.43h4.25v-9.95c0-.89.19-1.66.57-2.3.38-.65.92-1.15 1.62-1.49.7-.35 1.53-.52 2.48-.52h1.19v-4.28h-.68c-1.31 0-2.45.34-3.44 1.02zm-13.21 4.92c-.45-.24-.92-.41-1.43-.55.38-.11.75-.24 1.09-.42.93-.48 1.66-1.15 2.18-2.02.52-.86.78-1.85.78-2.97 0-1.28-.34-2.43-1.02-3.43s-1.62-1.79-2.83-2.35-2.59-.85-4.14-.85h-10.78v25.2h11c1.63 0 3.09-.3 4.36-.89 1.28-.59 2.27-1.42 2.99-2.48s1.07-2.26 1.07-3.61c0-1.24-.29-2.35-.86-3.33-.58-.98-1.38-1.75-2.41-2.3zm-11.78-9.02h5.92c.77 0 1.45.15 2.05.44s1.06.71 1.4 1.23.5 1.15.5 1.85-.17 1.33-.5 1.87-.79.96-1.39 1.25c-.59.29-1.28.44-2.06.44h-5.92v-7.09zm9.92 16.32c-.36.56-.87.99-1.52 1.3s-1.41.46-2.26.46h-6.14v-7.52h6.14c.85 0 1.6.16 2.25.49.65.32 1.15.77 1.52 1.35s.55 1.24.55 1.98-.18 1.4-.54 1.95zm35.77-10.33c-.6-.92-1.36-1.66-2.29-2.21-1.15-.67-2.48-1.01-4-1.01-1.64 0-3.11.41-4.4 1.23s-2.3 1.97-3.03 3.44-1.1 3.13-1.1 4.98.37 3.51 1.1 4.98 1.75 2.62 3.04 3.44c1.3.82 2.76 1.23 4.39 1.23 1.52 0 2.86-.34 4-1.01.94-.55 1.69-1.29 2.29-2.21v2.79h4.18v-18.43h-4.18v2.79zm-.69 9.48c-.44.88-1.06 1.57-1.85 2.07s-1.7.75-2.74.75-1.91-.25-2.7-.74-1.41-1.18-1.84-2.07c-.44-.89-.66-1.91-.66-3.06s.22-2.17.66-3.05 1.05-1.57 1.84-2.07 1.69-.75 2.7-.75 1.94.25 2.74.75 1.41 1.19 1.85 2.07.67 1.9.67 3.05-.22 2.17-.67 3.05zm9.42-14.21h4.66v-4.21h-4.66zm.21 20.38h4.25v-18.43h-4.25z" fill="#000"/><path d="m78 18h-60v60h60z" fill="#000"/><path d="m26 70h24v-4h-24zm20.58-44.52v15.98c0 .49-.1.92-.31 1.3-.21.37-.5.6601-.87.8701s-.81.3098-1.3.3098h-3.73v3.9402h4.24c1.23 0 2.31-.25 3.26-.76s1.68-1.2201 2.2-2.1501.78-2 .78-3.22v-16.27zm-8.15 18.57h-3.18v-14.75h3.18v-3.82h-10.58v3.82h3.2v14.75h-3.2v3.8201h10.58z" fill="#fff"/></svg>