<?xml version="1.0" encoding="utf-8"?>
<!-- Generator: Adobe Illustrator 16.0.0, SVG Export Plug-In . SVG Version: 6.00 Build 0)  -->
<!DOCTYPE svg PUBLIC "-//W3C//DTD SVG 1.1//EN" "http://www.w3.org/Graphics/SVG/1.1/DTD/svg11.dtd">
<svg version="1.1" xmlns="http://www.w3.org/2000/svg" xmlns:xlink="http://www.w3.org/1999/xlink" x="0px" y="0px"
	 width="708.75px" height="472.5px" viewBox="0 0 708.75 472.5" enable-background="new 0 0 708.75 472.5" xml:space="preserve">
<linearGradient id="SVGID_1_" gradientUnits="userSpaceOnUse" x1="2.7998" y1="236.25" x2="705.9502" y2="236.25">
	<stop  offset="0" style="stop-color:#36BEFD"/>
	<stop  offset="1" style="stop-color:#6461F6"/>
</linearGradient>
<path fill="none" stroke="url(#SVGID_1_)" stroke-width="46.9" stroke-linecap="round" stroke-miterlimit="10" d="M577.5,341.25H420
	c-16.656,0-31.977,7.648-42.043,20.992c-3.203,4.289-5.781,9.066-7.582,14.102c-1.93,5.52-2.945,11.43-2.945,17.406v1.613
	c0.133,5.133,1.133,10.684,2.973,15.867c0.563,1.559,1.215,3.109,1.887,4.449c2.305,4.82,4.809,8.68,7.641,11.902
	c10.199,11.98,24.703,18.668,40.07,18.668h157.5c33.348,0,64-15.32,84.09-42.027c9.203-12.305,15.738-26.852,18.859-42.012
	c1.348-6.805,2.051-13.914,2.051-20.961s-0.703-14.156-2.09-21.137c-3.082-14.984-9.617-29.531-18.863-41.891
	C641.5,251.57,610.848,236.25,577.5,236.25h-105c-28.949,0-52.5-23.551-52.5-52.5s23.551-52.5,52.5-52.5H630
	c22.242,0,42.141-14.055,49.512-34.973c1.977-5.645,2.988-11.551,2.988-17.527s-1.012-11.883-3.004-17.57
	c-5.699-16.219-19.598-28.961-36.27-33.227c-4.32-1.156-8.684-1.703-13.227-1.703H236.32c-48.633,0-94.285,16.133-132.035,46.664
	c-16.566,13.422-30.914,29.133-42.625,46.668c-9.84,14.656-17.723,30.332-23.461,46.633c-5.367,15.273-8.945,30.953-10.629,46.602
	c-0.883,7.73-1.32,15.566-1.32,23.434s0.438,15.703,1.301,23.277c1.703,15.805,5.281,31.484,10.656,46.77
	c5.73,16.289,13.613,31.965,23.418,46.574c11.746,17.582,26.094,33.293,42.684,46.738c37.727,30.508,83.379,46.641,132.012,46.641
	c7.637,0,14.734-0.383,21.695-1.168"/>
<linearGradient id="SVGID_2_" gradientUnits="userSpaceOnUse" x1="107.7998" y1="236.25" x2="364.7002" y2="236.25">
	<stop  offset="0" style="stop-color:#36BEFD"/>
	<stop  offset="1" style="stop-color:#6461F6"/>
</linearGradient>
<circle fill="none" stroke="url(#SVGID_2_)" stroke-width="46.9" stroke-linecap="round" stroke-miterlimit="10" cx="236.25" cy="236.25" r="105"/>
</svg>
