<?xml version="1.0" encoding="utf-8"?>
<!-- Generator: Adobe Illustrator 16.0.0, SVG Export Plug-In . SVG Version: 6.00 Build 0)  -->
<!DOCTYPE svg PUBLIC "-//W3C//DTD SVG 1.1//EN" "http://www.w3.org/Graphics/SVG/1.1/DTD/svg11.dtd">
<svg version="1.1" id="Layer_1" xmlns="http://www.w3.org/2000/svg" xmlns:xlink="http://www.w3.org/1999/xlink" x="0px" y="0px"
	 width="804.385px" height="864px" viewBox="557.808 129.6 804.385 864" enable-background="new 557.808 129.6 804.385 864"
	 xml:space="preserve">
<g>
	<polygon fill="#DD0031" points="960,129.6 960,129.6 960,129.6 557.808,273.024 619.152,804.816 960,993.6 960,993.6 960,993.6 
		1300.848,804.816 1362.192,273.024 	"/>
	<polygon fill="#C3002F" points="960,129.6 960,225.504 960,225.072 960,662.688 960,662.688 960,993.6 960,993.6 1300.848,804.816 
		1362.192,273.024 	"/>
	<path fill="#FFFFFF" d="M960,225.072l-251.424,563.76l0,0h93.744l0,0l50.544-126.144h213.408l50.544,126.144l0,0h93.743l0,0
		L960,225.072L960,225.072L960,225.072L960,225.072L960,225.072z M1033.44,584.928H886.56L960,408.24L1033.44,584.928z"/>
</g>
</svg>
