<svg xmlns="http://www.w3.org/2000/svg" xmlns:bx="https://boxy-svg.com" viewBox="0 0 630 149"><defs><linearGradient bx:pinned="true" id="a"><stop offset="0" style="stop-color:transparent"/><stop offset="1" style="stop-color:rgba(0,0,0,.8)"/></linearGradient></defs><g><path d="M337.315 309.882h31.855v-2.996h-27.873v-17.912h23.744v-2.997h-23.744v-17.539h27.873v-2.994h-31.855v44.438zM296.981 309.882h31.855v-2.996h-27.873v-41.442h-3.982v44.438zM253.108 309.882h-3.982v-44.501h19.32c4.473 0 8.111 1.018 10.913 3.056 2.9 2.122 4.351 4.973 4.351 8.552 0 2.373-.738 4.453-2.214 6.242-1.473 1.788-3.462 3.036-5.971 3.744 5.997 1.791 8.997 5.39 8.997 10.799 0 3.869-1.426 6.888-4.277 9.051-2.755 2.038-6.49 3.057-11.208 3.057h-9.661v-2.997h9.22c3.637 0 6.512-.811 8.627-2.432 2.212-1.624 3.317-3.85 3.317-6.681 0-2.871-1.105-5.118-3.317-6.74-2.115-1.58-4.99-2.372-8.627-2.372h-9.22v-3.059h8.63c3.438 0 6.194-.665 8.257-1.997 2.311-1.498 3.466-3.703 3.466-6.615 0-2.87-1.155-5.076-3.466-6.615-2.063-1.333-4.818-1.998-8.257-1.998H253.11l-.002 41.506h0zM230.987 309.882h3.981v-44.438h-3.981l-17.845 34.266-18.287-34.266h-3.981v44.438h3.981v-36.638l16.224 30.396h3.98l15.928-30.396v36.638h0z" style="stroke-width:3.82191px;stroke-linejoin:round;stroke-linecap:round;fill:#484848;stroke:#484848" transform="matrix(1.05 0 0 1.05 231.405 -221.614)"/><path d="m164.106 265.567 19.318 44.314h-4.276l-4.573-10.8h-.071l-1.18-2.933-1.844-4.432-1.179-2.744-7.965-18.914-10.913 26.091h15.337l1.253 2.934h-17.844l-4.571 10.799h-4.277l19.246-44.314h0l3.539-.001h0zM105.632 309.882h-3.982v-44.501h19.985c4.424 0 8.011 1.018 10.765 3.056 2.9 2.166 4.351 5.118 4.351 8.864 0 3.33-1.105 6.034-3.319 8.112-2.113 2.084-5.063 3.393-8.847 3.933l12.756 20.535h-4.719l-12.536-20.473h-5.235v-2.996h6.267c3.539 0 6.315-.728 8.332-2.184 2.164-1.58 3.246-3.869 3.246-6.865 0-2.955-1.083-5.222-3.246-6.805-2.016-1.457-4.793-2.184-8.332-2.184h-15.485l-.001 41.508h0zM85.944 297.272c-.787 3.082-2.409 5.517-4.868 7.305-2.507 1.789-5.53 2.684-9.07 2.684-3.933 0-7.251-1.145-9.953-3.432-1.772-1.499-2.928-3.414-3.467-5.745-.395-1.831-.59-5.305-.59-10.423 0-5.115.195-8.59.59-10.423.539-2.329 1.696-4.244 3.467-5.74 2.7-2.288 6.02-3.434 9.953-3.434 3.54 0 6.538.896 8.996 2.683 2.41 1.789 4.007 4.225 4.794 7.305h4.056c-.885-4.036-2.901-7.198-6.049-9.489-3.195-2.329-7.127-3.493-11.798-3.493-5.161 0-9.537 1.518-13.125 4.554-2.212 1.875-3.613 4.121-4.203 6.742-.443 1.914-.665 5.679-.665 11.296 0 5.618.222 9.364.665 11.235.589 2.664 1.991 4.933 4.203 6.805 3.588 3.038 7.965 4.557 13.125 4.557 4.621 0 8.529-1.164 11.726-3.495 3.194-2.329 5.235-5.492 6.12-9.488h-3.907v-.004z" style="stroke-width:3.82191px;stroke-linejoin:round;stroke-linecap:round;fill:#141414;stroke:#141414" transform="matrix(1.05 0 0 1.05 231.405 -221.614)"/><path d="M45.461 297.961c0-3.621-1.524-6.492-4.572-8.613-2.017-1.456-5.138-2.435-9.365-2.935l-5.677-.749c-3.345-.499-5.95-1.414-7.816-2.746-1.818-1.29-2.73-3.223-2.73-5.803 0-2.871 1.083-5.119 3.246-6.742 2.113-1.622 5.089-2.435 8.923-2.435 5.111 0 9.364 1.374 12.756 4.121l2.581-2.185c-4.375-3.204-9.414-4.806-15.116-4.806-5.063 0-9.045 1.08-11.947 3.244-2.9 2.206-4.35 5.181-4.35 8.925 0 3.496 1.377 6.223 4.13 8.176 2.261 1.666 5.383 2.748 9.365 3.247l6.121.813c3.246.374 5.775 1.164 7.596 2.371 1.918 1.374 2.876 3.454 2.876 6.241 0 2.874-1.207 5.118-3.615 6.741-2.409 1.624-5.704 2.436-9.879 2.436-5.803 0-10.767-1.749-14.897-5.244l-2.802 2.372c4.62 3.912 10.445 5.867 17.475 5.867 5.457 0 9.783-1.104 12.979-3.308 3.144-2.205 4.718-5.203 4.718-8.988h0z" style="stroke-miterlimit:2.75;stroke-width:3.82191px;stroke-linejoin:round;stroke-linecap:round;fill:#141414;stroke:#141414" transform="matrix(1.05 0 0 1.05 231.405 -221.614)"/></g><g><path d="M361.2 152.511c-.022 22.429-9.255 42.92-23.938 57.705-14.683 14.785-34.943 23.988-56.847 24.01h-4.52v-.004h-72.803l-.038.001h-2.197l-.472-.001h-116.7a65.768 65.768 0 0 1-45.055-20.265c-11.412-11.933-18.44-28.28-18.44-46.216 0-24.842 13.699-46.598 33.819-58.034v-.002a66.265 66.265 0 0 1 32.663-8.591c3.794 0 7.217.298 10.693.86 4.345-17.738 13.03-33.675 25.068-46.805.065-.072.131-.144.195-.212l.13-.136c13.1-14.138 30.074-24.765 49.115-30.182l-.001.001a106.825 106.825 0 0 1 29.095-4.026c38.397.036 72.15 20.447 90.911 50.962 19.579 2.978 36.949 12.951 49.346 27.265 12.423 14.343 19.958 33.168 19.976 53.67ZM171.873 24.639h.001-.001ZM97.137 152.094a42.326 42.326 0 0 0-.549-1.543l-.014-.035-.008-.037a109.47 109.47 0 0 1-2.409-22.93c0-1.043.021-2.079.059-3.102a42.092 42.092 0 0 0-11.12-1.478c-11.775 0-22.338 4.745-30.059 12.487-7.72 7.743-12.451 18.337-12.451 30.144 0 11.804 4.892 22.283 12.778 29.914s18.62 12.268 30.397 12.268c.21 0 .392.018.554.015l46.179-.008c-16.299-14.495-28.099-33.346-33.357-55.695Zm184.232 55.699c15.733.021 29.833-6.229 40.098-16.445 10.266-10.217 16.553-24.277 16.553-40.051a57.02 57.02 0 0 0-2.015-15.092l-.039-.141.025.079-.03-.185a56.397 56.397 0 0 0-3.537-9.43l.027.043a1.142 1.142 0 0 1-.065-.131l.02.05a51.36 51.36 0 0 0-.605-1.222l-.022-.042-.007-.012a48.068 48.068 0 0 0-.553-1.051l-.144-.267a48.095 48.095 0 0 0-.489-.878c-.056-.096-.099-.179-.142-.25a55.727 55.727 0 0 0-.626-1.061c-.054-.092-.112-.183-.173-.28a49.846 49.846 0 0 0-.465-.748c-.097-.151-.187-.295-.279-.434a42.22 42.22 0 0 0-.381-.583c-.11-.161-.214-.319-.319-.476-.129-.191-.262-.378-.397-.573a38.868 38.868 0 0 0-.624-.881c-.09-.126-.182-.253-.274-.376a88.515 88.515 0 0 0-.685-.909 57.917 57.917 0 0 0-2.484-3.014l-.028-.031c-6.756-7.649-15.484-13.432-25.44-16.569l-.124-.038a56.394 56.394 0 0 0-16.971-2.589 57.22 57.22 0 0 0-3.273.096l-.377.022-.124-.358c-3.681-10.657-9.393-20.314-16.703-28.602l-.002-.002c-15.853-18.014-39.05-29.297-64.941-29.297-23.849 0-45.316 9.592-60.922 25.182-15.605 15.591-25.202 37.035-25.202 60.848 0 21.559 7.819 41.08 20.842 56.091 13.023 15.009 31.124 25.384 51.793 28.52l.064.007c4.304.653 8.868 1.073 13.355 1.072l.084.002h.72c2.442 0 6.196-.1 10.634-.601a51.839 51.839 0 0 0 4.833-.905c4.326-1.027 7.949-2.498 10.953-4.438 2.998-1.925 5.256-4.243 6.863-7.034 1.615-2.779 2.395-5.877 2.395-9.417 0-3.136-.712-5.764-2.201-8.013-1.48-2.274-3.66-4.258-6.622-6.031-2.974-1.785-6.701-3.363-11.241-4.755-4.554-1.399-9.866-2.855-15.943-4.374-8.892-2.083-17.006-4.186-24.339-6.312-7.35-2.128-13.791-4.754-19.263-7.851-5.484-3.11-9.924-6.921-13.243-11.365-3.318-4.464-5.447-10.184-6.341-17.047a79.36 79.36 0 0 1-.543-5.375 37.925 37.925 0 0 1 .061-5.658c.489-6.378 2.304-12.27 5.412-17.568 3.113-5.286 7.387-9.869 12.751-13.666 5.364-3.784 11.762-6.762 19.126-8.897 7.361-2.129 15.538-3.203 24.456-3.203 9.719 0 18.596 1.133 26.558 3.38 7.966 2.258 14.835 5.581 20.523 9.932 5.683 4.361 10.177 9.71 13.411 15.96 3.22 6.257 5.05 13.426 5.459 21.4l.027.525H228.97l-.043-.452c-.774-8.194-3.941-14.209-9.555-18.286-5.63-4.089-13.629-6.119-24.175-6.119-5.016 0-9.439.49-13.325 1.484-3.889.991-7.137 2.356-9.816 4.136-2.683 1.767-4.685 3.827-6.09 6.259-1.416 2.419-2.093 5.093-2.093 8.154 0 2.904.576 5.297 1.79 7.31 1.195 2.026 3.105 3.755 5.822 5.286 2.734 1.547 6.228 2.989 10.532 4.341 4.312 1.359 9.574 2.714 15.809 4.071a1670.947 1670.947 0 0 1 16.881 3.845 150.59 150.59 0 0 1 7.697 2.013l1.933.544c8.523 1.902 14.379 4.041 18.891 6.469l-.031-.031.24.144c.189.103.375.207.56.311l.046.054 2.459 1.478.15.1-.133-.09.171.103c3.697 2.223 6.926 4.881 9.625 7.939.67.763 1.307 1.567 1.908 2.389l-.027-.024.028.026.004.005.099.098.008.046-.06-.081.06.082.025.148-.015-.094-.007-.05c2.005 2.775 3.655 5.922 4.917 9.387 1.652 4.571 2.489 9.961 2.491 16.083-.007 7.824-1.678 14.907-4.983 21.132a41.983 41.983 0 0 1-1.823 3.128Zm51.055-81.265-.002-.004-.007-.016.009.02Zm-.018-.038.001.002-.001-.002Zm-79.847-73.068a89.861 89.861 0 0 0-9.527-9.521l-.01-.009a90.032 90.032 0 0 1 9.55 9.546l-.013-.016Z" style="fill:#141414" transform="matrix(.61 0 0 .61 -.434 -3.445)"/><path d="M84.476 158.518c0-4.619-3.704-8.363-8.277-8.363-4.573 0-8.279 3.744-8.279 8.363a8.37 8.37 0 0 0 3.206 6.604l-4.159 15.781h19.112l-4.688-15.876a8.374 8.374 0 0 0 3.085-6.509z" style="fill:#141414" transform="matrix(.61 0 0 .61 -.434 -3.445)"/></g><g><g transform="matrix(.61 0 0 .61 -.794 -3.78)"><linearGradient id="b" x1="-102.054" x2="-42.894" y1="210.503" y2="151.343" gradientTransform="matrix(1 0 0 -1 214.4 414.1)" gradientUnits="userSpaceOnUse"><stop offset="0" style="stop-color:#81aaca;stop-opacity:0"/><stop offset="1" style="stop-color:#81aaca;stop-opacity:.6"/></linearGradient><path fill="url(#b)" d="M131.519 208.29h-23.867l-23.25 25.433h116.137v-.002c-26.37-.077-50.487-9.573-69.02-25.431z" opacity=".7"/></g><path d="M72.848 106.299c-6.922 0-12.574 1.353-18.593 3.841 9.578-5.426 20.638-8.526 32.417-8.526 3.772 0 7.47.321 11.069.929 4.283-17.856 13.059-33.957 25.062-47.038.062-.069.127-.139.19-.206l.13-.137c-13.167 16.112-21.155 37.086-21.155 60.076 0 21.501 11.971 84.2 80.299 91.971 4.319.655 8.907 1.076 13.417 1.076l.078.002h.726c10.701 0 46.943-1.952 53.51-30.741 6.311-27.652-25.24-37.794-27.738-38.551l1.955.55c10.878 2.422 17.339 5.212 22.245 8.513-.007-.011-.016-.02-.027-.031 3.666 2.201 6.837 4.81 9.507 7.841a33.348 33.348 0 0 1 1.91 2.395l.02.019.001.008c2.015 2.766 3.653 5.88 4.914 9.35 1.64 4.524 2.462 9.828 2.461 15.912 0 7.767-1.642 14.732-4.924 20.897a46.693 46.693 0 0 1-2.303 3.864l23.35-.02c31.668 0 57.151-25.244 57.151-56.996 0-5.271-.709-10.376-2.033-15.224-.003-.006-.004-.014-.006-.022 3.209 8.184 4.746 17.259 4.746 26.592 0 37.81-25.26 71.079-65.333 71.079h-72.802l-.038.001h-2.197c-26.494 0-50.428-9.512-69.037-25.434-16.763-14.534-28.978-34.049-34.202-56.332a41.77 41.77 0 0 0-.563-1.583 108.744 108.744 0 0 1-2.398-22.825c0-5.403.559-10.496 1.263-15.527l.033-.224a50.975 50.975 0 0 0-23.105-5.499Zm128.119-85.185c38.35 0 71.952 20.379 90.605 50.919.038.007.075.015.113.02l.154.266c3.428 7.727 5.826 15.787 7.539 24.347-.36-.122-.722-.238-1.082-.348a57.122 57.122 0 0 0-20.423-2.515c-3.703-10.703-9.463-20.444-16.801-28.77-15.49-24.992-42.151-41.598-72.47-41.598-5.691 0-11.253.588-16.637 1.698a106 106 0 0 1 29.002-4.019ZM81.391 165.027l4.688 15.876H66.967l4.159-15.781a8.37 8.37 0 0 1-3.206-6.604c0-4.619 3.706-8.363 8.279-8.363s8.277 3.744 8.277 8.363a8.374 8.374 0 0 1-3.085 6.509Z" style="fill:#6f6f6f" transform="matrix(.61 0 0 .61 -.794 -3.78)"/><path d="M72.848 106.799c-6.864 0-12.42 1.327-18.402 3.803l-.437-.897a66.265 66.265 0 0 1 32.663-8.591c3.794 0 7.217.298 10.693.86 4.345-17.738 13.03-33.675 25.068-46.805.065-.072.131-.144.195-.212l.13-.136.752.657c-13.127 16.043-21.042 36.859-21.042 59.76 0 10.715 2.972 31.627 14.456 50.878 11.494 19.268 31.391 36.774 65.418 40.599 4.304.653 8.868 1.071 13.355 1.07l.071.002h.72c5.34 0 16.986-.484 28.134-4.544 11.156-4.064 21.703-11.561 24.889-25.808 1.573-6.824.79-12.484-1.292-17.272-2.079-4.781-5.429-8.574-9.104-11.592-7.34-6.028-15.755-8.72-17-9.097l.28-.96 1.942.546c8.523 1.902 14.379 4.041 18.891 6.469l-.031-.031.24.144c.189.103.375.207.56.311l.046.054 2.459 1.478.237.158-.22-.148.171.103c3.697 2.223 6.927 4.881 9.625 7.94.67.762 1.307 1.566 1.908 2.388l-.053-.047.054.049.004.005a.81.81 0 0 1 .026.036l-.026-.036.099.098.008.046-.06-.081.06.082.035.204-.025-.15-.007-.05c2.006 2.776 3.655 5.922 4.917 9.388 1.652 4.57 2.489 9.96 2.491 16.082-.007 7.824-1.678 14.907-4.983 21.132a41.78 41.78 0 0 1-1.823 3.128l22.429-.019c15.733.021 29.833-6.229 40.098-16.445 10.266-10.217 16.553-24.277 16.553-40.051a57.02 57.02 0 0 0-2.015-15.092l-.039-.141.025.079-.762-4.661 1.717 4.386c3.223 8.234 4.781 17.4 4.781 26.775 0 18.989-6.378 36.934-17.762 50.046-11.385 13.114-27.921 21.506-48.071 21.533h-72.802l-.038.001h-2.197c-26.586-.018-50.685-9.592-69.365-25.556-16.811-14.59-29.097-34.224-34.355-56.573a39.118 39.118 0 0 0-.55-1.543l-.013-.035-.008-.037a109.47 109.47 0 0 1-2.409-22.93c0-5.382.553-10.471 1.25-15.466-6.809-3.396-14.435-5.284-22.559-5.284Zm23.331 4.553.321.162-.052.357-.033.222c-.703 5.023-1.258 10.08-1.258 15.456 0 7.834.811 15.379 2.379 22.683.195.516.377 1.029.556 1.567 5.193 22.207 17.34 41.634 34.054 56.111 18.539 15.879 42.309 25.331 68.711 25.313h2.197l.038-.001h72.802c19.923.027 36.054-8.216 47.316-21.189 11.265-12.974 17.517-30.569 17.517-49.39 0-6.243-.685-12.347-2.103-18.148.261 2.234.396 4.505.396 6.802 0 15.978-6.454 30.416-16.847 40.759-10.393 10.344-24.869 16.716-40.804 16.737l-24.283.021.516-.777a45.874 45.874 0 0 0 2.279-3.823c3.259-6.105 4.872-12.952 4.865-20.662.004-6.046-.803-11.265-2.431-15.742-1.246-3.435-2.849-6.485-4.843-9.218l-.004-.004-.002-.003.005.005-.004-.006-.062-.084-.008-.052a12.432 12.432 0 0 1-.027-.166l.033.217a32.381 32.381 0 0 0-1.838-2.301 38.227 38.227 0 0 0-6.976-6.186l.133.173-2.541-1.712c-3.995-2.692-9.007-5.03-16.667-7.113 3.097 1.492 6.786 3.605 10.236 6.438 3.736 3.069 7.246 7.044 9.386 11.966 2.137 4.913 2.931 10.891 1.349 17.893-3.381 14.542-14.238 22.415-25.521 26.525-11.29 4.113-23.115 4.605-28.476 4.605h-.726l-.084-.002c-4.531-.001-9.143-.424-13.477-1.08-34.295-3.948-54.563-21.677-66.136-41.077-11.583-19.416-14.597-40.604-14.597-51.39 0-18.054 4.933-34.917 13.403-49.15a105.19 105.19 0 0 0-16.644 36.572l-.109.454-.46-.078a65.755 65.755 0 0 0-10.986-.922c-11.712 0-17.603 1.816-25.42 5.128 3.643-.941 4.616-1.443 11.596-1.443a51.686 51.686 0 0 1 23.331 5.553Zm104.788-90.738c38.394.036 72.144 20.444 90.906 50.954l.118.009.129.23.176.309c3.439 7.757 5.854 15.87 7.572 24.452l.17.85-.82-.278a37.01 37.01 0 0 0-1.072-.345 56.396 56.396 0 0 0-16.972-2.589 57.22 57.22 0 0 0-3.273.096l-.377.022-.124-.358c-3.681-10.657-9.393-20.314-16.703-28.602l-.028-.032-.022-.036c-15.41-24.911-41.858-41.361-72.045-41.361-5.665 0-11.176.581-16.536 1.688l-.238-.971a106.829 106.829 0 0 1 29.139-4.038Zm-17.863 2.504c1.82-.121-.219-.183 5.498-.183 30.451 0 57.302 16.726 72.873 41.799 7.352 8.357 13.018 17.94 16.746 28.55a57.85 57.85 0 0 1 20.225 2.557c.363.111.179.055.271.084-1.694-8.223-3.913-15.691-7.325-23.38a.916.916 0 0 0-.018-.032l.246.036-.139-.024-.112-.021a11.19 11.19 0 0 1-.119-.204l.116.204-.104-.019-.117-.191c-18.569-30.457-51.958-50.716-90.178-50.68-10.021-.004-12.059.513-17.863 1.504ZM81.962 165.195l4.786 16.208h-20.43l4.243-16.1c-1.874-1.619-3.141-3.983-3.141-6.785a9.01 9.01 0 0 1 2.569-6.265c1.561-1.577 3.821-2.598 6.21-2.598 2.39 0 4.648 1.021 6.209 2.598a9.009 9.009 0 0 1 2.568 6.265c0 2.745-1.209 5.058-3.014 6.677Zm-1.146-.349.259-.207c1.817-1.453 2.901-3.604 2.901-6.121 0-2.208-.844-4.112-2.279-5.562-1.435-1.45-3.315-2.301-5.498-2.301-2.183 0-4.064.851-5.499 2.301-1.436 1.45-2.28 3.354-2.28 5.562 0 2.57 1.132 4.763 3.014 6.21l.26.2-4.078 15.475H85.41Z" style="fill:none" transform="matrix(.61 0 0 .61 -.794 -3.78)"/><path d="M97.819 102.049s-.899-.147-1.355-.214a66.425 66.425 0 0 0-9.792-.721 66.265 66.265 0 0 0-32.663 8.591l.437.897c5.982-2.476 11.538-3.803 18.402-3.803 8.253 0 15.992 1.947 22.881 5.446l.452-.892a51.68 51.68 0 0 0-23.333-5.554c-6.98 0-7.945.498-11.584 1.438 7.814-3.309 13.696-5.123 25.408-5.123a65.568 65.568 0 0 1 11.001.925c-.003-.001.149-.989.146-.99ZM200.039 208.362v25.86h75.855c20.15-.027 36.686-8.419 48.071-21.533 11.384-13.112 17.762-31.057 17.762-50.046 0-9.375-1.558-18.541-4.781-26.775l-1.717-4.386.767 4.69a.616.616 0 0 1 .044.125l-.074-.233.039.141a57.02 57.02 0 0 1 2.015 15.092c0 15.774-6.287 29.834-16.553 40.051-10.265 10.216-24.365 16.466-40.098 16.445v1c15.935-.021 30.411-6.393 40.804-16.737 10.393-10.343 16.847-24.781 16.847-40.759 0-5.305-.72-10.476-2.051-15.356l.167.613-.202-.705c.022.075.04.118.032.081l-.95.304c3.195 8.134 4.711 17.118 4.711 26.409 0 18.821-6.252 36.416-17.517 49.39-11.262 12.973-27.393 21.216-47.316 21.189h-74.855v-24.86Z" style="fill:none" transform="matrix(.61 0 0 .61 -.794 -3.78)"/><path d="M265.746 183.552c-.007 7.824-1.678 14.907-4.983 21.132-3.315 6.21-7.929 11.535-13.773 15.896-5.845 4.349-12.791 7.691-20.756 9.988-7.108 2.043-14.848 3.433-23.18 3.655h-2.197c-26.586-.018-50.685-9.592-69.365-25.556-16.811-14.59-29.097-34.224-34.355-56.573a39.118 39.118 0 0 0-.55-1.543l-.013-.035-.008-.037a109.47 109.47 0 0 1-2.409-22.93c0-5.43.563-10.561 1.268-15.599 3.169-21.712 12.876-41.365 27.008-56.781.065-.072.131-.144.195-.212l.13-.136.752.657c-13.127 16.043-21.042 36.859-21.042 59.76 0 10.715 2.972 31.627 14.456 50.878 11.494 19.268 31.391 36.774 65.418 40.599 4.304.653 8.868 1.071 13.355 1.07l.071.002h.72c5.34 0 16.986-.484 28.134-4.544 11.156-4.064 21.703-11.561 24.889-25.808 1.573-6.824.79-12.484-1.292-17.272-2.079-4.781-5.429-8.574-9.104-11.592-7.34-6.028-15.755-8.72-17-9.098l.28-.959 1.942.546c8.523 1.902 14.379 4.041 18.891 6.469l-.031-.031.24.144c.189.103.375.207.56.311l.046.054 2.459 1.478.237.158-.22-.148.171.103c3.697 2.223 6.927 4.881 9.625 7.94.67.762 1.307 1.566 1.908 2.388l-.053-.047.054.049.004.005a.81.81 0 0 1 .026.036l-.026-.036.099.098.008.046-.06-.081.06.082.035.204-.025-.15-.007-.05c2.006 2.776 3.655 5.922 4.917 9.388 1.652 4.57 2.489 9.96 2.491 16.082Zm-3.431-15.742c-1.246-3.435-2.849-6.485-4.843-9.218l-.004-.004-.002-.003.005.005-.004-.006-.062-.084-.008-.052a12.432 12.432 0 0 1-.027-.166l.033.217c-.585-.8-1.19-1.564-1.838-2.301a38.26 38.26 0 0 0-6.976-6.186l.133.173-2.541-1.712c-3.995-2.692-9.007-5.03-16.667-7.112 3.097 1.491 6.786 3.604 10.236 6.437 3.736 3.069 7.246 7.044 9.386 11.966 2.137 4.913 2.931 10.891 1.349 17.893-3.381 14.542-14.238 22.415-25.521 26.525-11.29 4.113-23.115 4.605-28.476 4.605h-.726l-.084-.002c-4.531-.001-9.143-.424-13.477-1.08-34.295-3.948-54.563-21.677-66.136-41.077-11.583-19.416-14.597-40.604-14.597-51.39 0-18.06 4.936-34.928 13.411-49.164a105.13 105.13 0 0 0-18.464 46.018c-.703 5.024-1.258 10.081-1.258 15.457 0 7.834.811 15.379 2.379 22.683.195.516.377 1.029.556 1.567 5.193 22.207 17.34 41.634 34.054 56.111 18.539 15.879 42.309 25.331 68.711 25.313h2.19c8.254-.215 15.853-1.584 22.911-3.617 7.887-2.267 14.671-5.529 20.434-9.828 5.766-4.287 10.236-9.446 13.489-15.564 3.259-6.105 4.872-12.952 4.865-20.662.004-6.046-.803-11.265-2.431-15.742ZM200.967 20.614c38.394.036 72.144 20.444 90.906 50.954l.118.009.129.23.176.309c3.439 7.757 5.854 15.87 7.572 24.452l.17.85-.82-.278a37.01 37.01 0 0 0-1.072-.345 56.396 56.396 0 0 0-16.972-2.589 57.22 57.22 0 0 0-3.273.096l-.377.022-.124-.358c-3.681-10.657-9.393-20.314-16.703-28.602l-.028-.032-.022-.036c-15.41-24.911-41.858-41.361-72.045-41.361-5.665 0-11.176.581-16.536 1.688l-.238-.971a106.829 106.829 0 0 1 29.139-4.038Zm-17.863 2.504c1.82-.121-.219-.183 5.498-.183 30.451 0 57.302 16.726 72.873 41.799 7.352 8.357 13.018 17.94 16.746 28.55a57.836 57.836 0 0 1 20.223 2.556c.361.111.181.056.273.085-1.694-8.223-3.908-15.684-7.325-23.38a.916.916 0 0 0-.018-.032l.246.036-.139-.024-.112-.021a11.19 11.19 0 0 1-.119-.204l.116.204-.104-.019-.117-.191c-18.569-30.457-51.958-50.716-90.178-50.68-10.021-.004-12.059.513-17.863 1.504ZM81.962 165.195l4.786 16.208h-20.43l4.243-16.1c-1.874-1.619-3.141-3.983-3.141-6.785a9.01 9.01 0 0 1 2.569-6.265c1.561-1.577 3.821-2.598 6.21-2.598 2.39 0 4.648 1.021 6.209 2.598a9.009 9.009 0 0 1 2.568 6.265c0 2.745-1.209 5.058-3.014 6.677Zm-1.146-.349.259-.207c1.817-1.453 2.901-3.604 2.901-6.121 0-2.208-.844-4.112-2.279-5.562-1.435-1.45-3.315-2.301-5.498-2.301-2.183 0-4.064.851-5.499 2.301-1.436 1.45-2.28 3.354-2.28 5.562 0 2.57 1.132 4.763 3.014 6.21l.26.2-4.078 15.475H85.41Z" style="fill:none" transform="matrix(.61 0 0 .61 -.794 -3.78)"/></g></svg>