<svg version="1.1" id="Ebene_1" x="0px" y="0px" viewBox="0 0 630 149" enable-background="new 0 0 380 322" xmlns="http://www.w3.org/2000/svg" xmlns:xlink="http://www.w3.org/1999/xlink" xmlns:bx="https://boxy-svg.com">
  <defs>
    <linearGradient id="gradient-0" bx:pinned="true">
      <stop offset="0" style="stop-color: rgba(0, 0, 0, 0);"></stop>
      <stop offset="1" style="stop-color: rgba(0, 0, 0, 0.8);"></stop>
    </linearGradient>
    <linearGradient id="gradient-0-0" gradientUnits="userSpaceOnUse" x1="203.235" y1="23.435" x2="203.235" y2="65.033" xlink:href="#gradient-0"></linearGradient>
    <linearGradient id="gradient-0-1" gradientUnits="userSpaceOnUse" x1="142.118" y1="107.195" x2="142.118" y2="207.212" xlink:href="#gradient-0"></linearGradient>
  </defs>
  <g transform="matrix(1.046597, 0, 0, 1.046597, 231.405204, -221.614051)" style="">
    <path d="M337.315,309.882h31.855v-2.996h-27.873v-17.912h23.744v-2.997h-23.744v-17.539h27.873v-2.994   h-31.855V309.882z" style="stroke-width: 3.82191px; stroke-linejoin: round; stroke-linecap: round; fill: rgb(72, 72, 72); stroke: rgb(72, 72, 72);"></path>
    <path d="M296.981,309.882h31.855v-2.996h-27.873v-41.442h-3.982V309.882z" style="stroke-width: 3.82191px; stroke-linejoin: round; stroke-linecap: round; fill: rgb(72, 72, 72); stroke: rgb(72, 72, 72);"></path>
    <path d="M253.108,309.882h-3.982v-44.501h19.32c4.473,0,8.111,1.018,10.913,3.056   c2.9,2.122,4.351,4.973,4.351,8.552c0,2.373-0.738,4.453-2.214,6.242c-1.473,1.788-3.462,3.036-5.971,3.744   c5.997,1.791,8.997,5.39,8.997,10.799c0,3.869-1.426,6.888-4.277,9.051c-2.755,2.038-6.49,3.057-11.208,3.057h-9.661v-2.997h9.22   c3.637,0,6.512-0.811,8.627-2.432c2.212-1.624,3.317-3.85,3.317-6.681c0-2.871-1.105-5.118-3.317-6.74   c-2.115-1.58-4.99-2.372-8.627-2.372h-9.22v-3.059h8.63c3.438,0,6.194-0.665,8.257-1.997c2.311-1.498,3.466-3.703,3.466-6.615   c0-2.87-1.155-5.076-3.466-6.615c-2.063-1.333-4.818-1.998-8.257-1.998h-14.896L253.108,309.882L253.108,309.882z" style="stroke-width: 3.82191px; stroke-linejoin: round; stroke-linecap: round; fill: rgb(72, 72, 72); stroke: rgb(72, 72, 72);"></path>
    <path d="M230.987,309.882h3.981v-44.438h-3.981l-17.845,34.266l-18.287-34.266h-3.981v44.438h3.981v-36.638   l16.224,30.396h3.98l15.928-30.396V309.882L230.987,309.882z" style="stroke-width: 3.82191px; stroke-linejoin: round; stroke-linecap: round; fill: rgb(72, 72, 72); stroke: rgb(72, 72, 72);"></path>
    <path d="M164.106,265.567l19.318,44.314h-4.276l-4.573-10.8h-0.071l-1.18-2.933l-1.844-4.432l-1.179-2.744   l-7.965-18.914l-10.913,26.091h15.337l1.253,2.934h-17.844l-4.571,10.799h-4.277l19.246-44.314l0,0l0,0L164.106,265.567   L164.106,265.567z" style="stroke-width: 3.82191px; stroke-linejoin: round; stroke-linecap: round; fill: rgb(20, 20, 20); stroke: rgb(20, 20, 20);"></path>
    <path d="M105.632,309.882h-3.982v-44.501h19.985c4.424,0,8.011,1.018,10.765,3.056   c2.9,2.166,4.351,5.118,4.351,8.864c0,3.33-1.105,6.034-3.319,8.112c-2.113,2.084-5.063,3.393-8.847,3.933l12.756,20.535h-4.719   l-12.536-20.473h-5.235v-2.996h6.267c3.539,0,6.315-0.728,8.332-2.184c2.164-1.58,3.246-3.869,3.246-6.865   c0-2.955-1.083-5.222-3.246-6.805c-2.016-1.457-4.793-2.184-8.332-2.184h-15.485L105.632,309.882L105.632,309.882z" style="stroke-width: 3.82191px; stroke-linejoin: round; stroke-linecap: round; fill: rgb(20, 20, 20); stroke: rgb(20, 20, 20);"></path>
    <path d="M85.944,297.272c-0.787,3.082-2.409,5.517-4.868,7.305c-2.507,1.789-5.53,2.684-9.07,2.684   c-3.933,0-7.251-1.145-9.953-3.432c-1.772-1.499-2.928-3.414-3.467-5.745c-0.395-1.831-0.59-5.305-0.59-10.423   c0-5.115,0.195-8.59,0.59-10.423c0.539-2.329,1.696-4.244,3.467-5.74c2.7-2.288,6.02-3.434,9.953-3.434   c3.54,0,6.538,0.896,8.996,2.683c2.41,1.789,4.007,4.225,4.794,7.305h4.056c-0.885-4.036-2.901-7.198-6.049-9.489   c-3.195-2.329-7.127-3.493-11.798-3.493c-5.161,0-9.537,1.518-13.125,4.554c-2.212,1.875-3.613,4.121-4.203,6.742   c-0.443,1.914-0.665,5.679-0.665,11.296c0,5.618,0.222,9.364,0.665,11.235c0.589,2.664,1.991,4.933,4.203,6.805   c3.588,3.038,7.965,4.557,13.125,4.557c4.621,0,8.529-1.164,11.726-3.495c3.194-2.329,5.235-5.492,6.12-9.488h-3.907V297.272z" style="stroke-width: 3.82191px; stroke-linejoin: round; stroke-linecap: round; fill: rgb(20, 20, 20); stroke: rgb(20, 20, 20);"></path>
    <path d="M45.461,297.961c0-3.621-1.524-6.492-4.572-8.613c-2.017-1.456-5.138-2.435-9.365-2.935   l-5.677-0.749c-3.345-0.499-5.95-1.414-7.816-2.746c-1.818-1.29-2.73-3.223-2.73-5.803c0-2.871,1.083-5.119,3.246-6.742   c2.113-1.622,5.089-2.435,8.923-2.435c5.111,0,9.364,1.374,12.756,4.121l2.581-2.185c-4.375-3.204-9.414-4.806-15.116-4.806   c-5.063,0-9.045,1.08-11.947,3.244c-2.9,2.206-4.35,5.181-4.35,8.925c0,3.496,1.377,6.223,4.13,8.176   c2.261,1.666,5.383,2.748,9.365,3.247l6.121,0.813c3.246,0.374,5.775,1.164,7.596,2.371c1.918,1.374,2.876,3.454,2.876,6.241   c0,2.874-1.207,5.118-3.615,6.741c-2.409,1.624-5.704,2.436-9.879,2.436c-5.803,0-10.767-1.749-14.897-5.244l-2.802,2.372   c4.62,3.912,10.445,5.867,17.475,5.867c5.457,0,9.783-1.104,12.979-3.308C43.887,304.744,45.461,301.746,45.461,297.961   L45.461,297.961z" style="stroke-miterlimit: 2.75; stroke-width: 3.82191px; stroke-linejoin: round; stroke-linecap: round; fill: rgb(20, 20, 20); stroke: rgb(20, 20, 20);"></path>
  </g>
  <g transform="matrix(0.611717, 0, 0, 0.611717, -0.433846, -3.444979)" style="">
    <g>
      <path d="M 361.2 152.511 C 361.178 174.94 351.945 195.431 337.262 210.216 C 322.579 225.001 302.319 234.204 280.415 234.226 L 275.895 234.226 L 275.895 234.222 L 203.092 234.222 C 203.1 234.221 203.088 234.222 203.054 234.223 L 200.857 234.223 C 200.7 234.223 200.542 234.223 200.385 234.222 L 83.685 234.222 C 65.979 233.533 50.042 225.89 38.63 213.957 C 27.218 202.024 20.19 185.677 20.19 167.741 C 20.19 142.899 33.889 121.143 54.009 109.707 L 54.009 109.705 C 63.642 104.256 74.826 101.114 86.672 101.114 C 90.466 101.114 93.889 101.412 97.365 101.974 C 101.71 84.236 110.395 68.299 122.433 55.169 C 122.498 55.097 122.564 55.025 122.628 54.957 C 122.674 54.908 122.719 54.862 122.758 54.821 C 135.858 40.683 152.832 30.056 171.873 24.639 C 171.873 24.639 171.872 24.64 171.872 24.64 C 181.11 22.024 190.889 20.616 200.967 20.614 C 239.364 20.65 273.117 41.061 291.878 71.576 C 311.457 74.554 328.827 84.527 341.224 98.841 C 353.647 113.184 361.182 132.009 361.2 152.511 Z M 171.873 24.639 C 171.873 24.639 171.874 24.639 171.874 24.639 C 171.874 24.639 171.873 24.639 171.873 24.639 Z M 97.137 152.094 C 96.962 151.573 96.784 151.068 96.588 150.551 L 96.574 150.516 L 96.566 150.479 C 94.99 143.123 94.157 135.437 94.157 127.549 C 94.157 126.506 94.178 125.47 94.216 124.447 C 90.664 123.478 86.954 122.969 83.096 122.969 C 71.321 122.969 60.758 127.714 53.037 135.456 C 45.317 143.199 40.586 153.793 40.586 165.6 C 40.586 177.404 45.478 187.883 53.364 195.514 C 61.25 203.145 71.984 207.782 83.761 207.782 C 83.971 207.782 84.153 207.8 84.315 207.797 L 130.494 207.789 C 114.195 193.294 102.395 174.443 97.137 152.094 Z M 281.369 207.793 C 297.102 207.814 311.202 201.564 321.467 191.348 C 331.733 181.131 338.02 167.071 338.02 151.297 C 338.02 146.06 337.322 141.021 336.005 136.205 L 335.966 136.064 L 335.991 136.143 L 335.961 135.958 C 335.182 133.14 334.2 130.431 333.017 127.804 C 332.996 127.76 332.981 127.727 332.967 127.693 C 332.791 127.303 332.61 126.92 332.424 126.528 L 332.451 126.571 C 332.432 126.54 332.402 126.479 332.386 126.44 L 332.406 126.49 C 332.208 126.078 332.009 125.673 331.801 125.268 L 331.779 125.226 C 331.777 125.222 331.774 125.218 331.772 125.214 C 331.59 124.855 331.411 124.52 331.219 124.163 C 331.17 124.072 331.123 123.986 331.075 123.896 C 330.912 123.598 330.752 123.307 330.586 123.018 C 330.53 122.922 330.487 122.839 330.444 122.768 C 330.239 122.413 330.03 122.056 329.818 121.707 C 329.764 121.615 329.706 121.524 329.645 121.427 C 329.491 121.175 329.337 120.926 329.18 120.679 C 329.083 120.528 328.993 120.384 328.901 120.245 C 328.774 120.048 328.647 119.852 328.52 119.662 C 328.41 119.501 328.306 119.343 328.201 119.186 C 328.072 118.995 327.939 118.808 327.804 118.613 C 327.6 118.315 327.392 118.024 327.18 117.732 C 327.09 117.606 326.998 117.479 326.906 117.356 C 326.754 117.151 326.602 116.948 326.448 116.744 C 326.372 116.644 326.297 116.546 326.221 116.447 C 325.424 115.411 324.6 114.411 323.737 113.433 C 323.727 113.422 323.719 113.414 323.709 113.402 C 316.953 105.753 308.225 99.97 298.269 96.833 C 298.235 96.822 298.193 96.81 298.145 96.795 C 292.772 95.107 287.099 94.206 281.174 94.206 C 280.073 94.206 278.985 94.24 277.901 94.302 L 277.524 94.324 L 277.4 93.966 C 273.719 83.309 268.007 73.652 260.697 65.364 L 260.695 65.362 C 244.842 47.348 221.645 36.065 195.754 36.065 C 171.905 36.065 150.438 45.657 134.832 61.247 C 119.227 76.838 109.63 98.282 109.63 122.095 C 109.63 143.654 117.449 163.175 130.472 178.186 C 143.495 193.195 161.596 203.57 182.265 206.706 C 182.28 206.707 182.296 206.709 182.329 206.713 C 186.633 207.366 191.197 207.786 195.684 207.785 L 195.768 207.787 C 196.076 207.787 196.268 207.787 196.268 207.787 C 196.342 207.787 196.411 207.787 196.488 207.787 C 198.93 207.787 202.684 207.687 207.122 207.186 C 208.8 206.951 210.401 206.651 211.955 206.281 C 216.281 205.254 219.904 203.783 222.908 201.843 C 225.906 199.918 228.164 197.6 229.771 194.809 C 231.386 192.03 232.166 188.932 232.166 185.392 C 232.166 182.256 231.454 179.628 229.965 177.379 C 228.485 175.105 226.305 173.121 223.343 171.348 C 220.369 169.563 216.642 167.985 212.102 166.593 C 207.548 165.194 202.236 163.738 196.159 162.219 C 187.267 160.136 179.153 158.033 171.82 155.907 C 164.47 153.779 158.029 151.153 152.557 148.056 C 147.073 144.946 142.633 141.135 139.314 136.691 C 135.996 132.227 133.867 126.507 132.973 119.644 C 132.732 117.877 132.552 116.078 132.43 114.269 C 132.31 112.447 132.328 110.55 132.491 108.611 C 132.98 102.233 134.795 96.341 137.903 91.043 C 141.016 85.757 145.29 81.174 150.654 77.377 C 156.018 73.593 162.416 70.615 169.78 68.48 C 177.141 66.351 185.318 65.277 194.236 65.277 C 203.955 65.277 212.832 66.41 220.794 68.657 C 228.76 70.915 235.629 74.238 241.317 78.589 C 247 82.95 251.494 88.299 254.728 94.549 C 257.948 100.806 259.778 107.975 260.187 115.949 L 260.214 116.474 L 228.97 116.474 L 228.927 116.022 C 228.153 107.828 224.986 101.813 219.372 97.736 C 213.742 93.647 205.743 91.617 195.197 91.617 C 190.181 91.617 185.758 92.107 181.872 93.101 C 177.983 94.092 174.735 95.457 172.056 97.237 C 169.373 99.004 167.371 101.064 165.966 103.496 C 164.55 105.915 163.873 108.589 163.873 111.65 C 163.873 114.554 164.449 116.947 165.663 118.96 C 166.858 120.986 168.768 122.715 171.485 124.246 C 174.219 125.793 177.713 127.235 182.017 128.587 C 186.329 129.946 191.591 131.301 197.826 132.658 C 203.592 133.94 209.219 135.223 214.707 136.503 C 217.339 137.119 219.909 137.791 222.404 138.516 L 224.337 139.06 C 232.86 140.962 238.716 143.101 243.228 145.529 L 243.197 145.498 L 243.437 145.642 C 243.626 145.745 243.812 145.849 243.997 145.953 L 244.043 146.007 L 246.502 147.485 C 246.552 147.518 246.602 147.551 246.652 147.585 L 246.519 147.495 L 246.69 147.598 C 250.387 149.821 253.616 152.479 256.315 155.537 C 256.985 156.3 257.622 157.104 258.223 157.926 L 258.196 157.902 C 258.209 157.914 258.22 157.924 258.224 157.928 L 258.228 157.933 L 258.327 158.031 L 258.335 158.077 L 258.275 157.996 C 258.295 158.023 258.315 158.05 258.335 158.078 L 258.36 158.226 C 258.356 158.199 258.35 158.166 258.345 158.132 L 258.338 158.082 C 260.343 160.857 261.993 164.004 263.255 167.469 C 264.907 172.04 265.744 177.43 265.746 183.552 C 265.739 191.376 264.068 198.459 260.763 204.684 C 260.048 206.025 259.585 206.797 258.94 207.812 Z M 332.424 126.528 L 332.422 126.524 L 332.415 126.508 C 332.418 126.515 332.421 126.521 332.424 126.528 Z M 332.406 126.49 C 332.406 126.49 332.407 126.491 332.407 126.492 L 332.406 126.49 Z M 252.559 53.422 C 249.614 50.003 246.429 46.819 243.032 43.901 C 243.029 43.898 243.025 43.895 243.022 43.892 C 246.427 46.817 249.62 50.01 252.572 53.438 C 252.567 53.433 252.563 53.427 252.559 53.422 Z" style="fill: rgb(20, 20, 20);"></path>
    </g>
    <g>
      <path d="M84.476,158.518c0-4.619-3.704-8.363-8.277-8.363c-4.573,0-8.279,3.744-8.279,8.363    c0,2.686,1.256,5.076,3.206,6.604l-4.159,15.781h19.112l-4.688-15.876C83.272,163.494,84.476,161.149,84.476,158.518z" style="fill: rgb(20, 20, 20);"></path>
    </g>
  </g>
  <g style=""></g>
  <g transform="matrix(0.613511, 0, 0, 0.614735, -0.793554, -3.779497)" style="">
    <g></g>
    <g>
      <linearGradient id="SVGID_10_" gradientUnits="userSpaceOnUse" x1="-173.8679" y1="277.3848" x2="-121.5132" y2="307.6119" gradientTransform="matrix(1 0 0 -1 214.3999 414.0996)">
        <stop offset="0" style="stop-color:#FFFFFF;stop-opacity:0"></stop>
        <stop offset="1" style="stop-color:#FFFFFF;stop-opacity:0.7"></stop>
      </linearGradient>
      <linearGradient id="SVGID_11_" gradientUnits="userSpaceOnUse" x1="-102.0544" y1="210.5029" x2="-42.8943" y2="151.3428" gradientTransform="matrix(1 0 0 -1 214.3999 414.0996)">
        <stop offset="0" style="stop-color:#81AACA;stop-opacity:0"></stop>
        <stop offset="1" style="stop-color:#81AACA;stop-opacity:0.6"></stop>
      </linearGradient>
      <path opacity="0.7" fill="url(#SVGID_11_)" enable-background="new    " d="M131.519,208.29h-23.867l-23.25,25.433h116.137v-0.002    C174.169,233.644,150.052,224.148,131.519,208.29z"></path>
      <linearGradient id="SVGID_12_" gradientUnits="userSpaceOnUse" x1="-18.4836" y1="279.4883" x2="19.7095" y2="213.3359" gradientTransform="matrix(1 0 0 -1 214.3999 414.0996)">
        <stop offset="0" style="stop-color:#FFFFFF;stop-opacity:0"></stop>
        <stop offset="1" style="stop-color:#FFFFFF;stop-opacity:0.9"></stop>
      </linearGradient>
    </g>
    <g>
      <linearGradient id="SVGID_14_" gradientUnits="userSpaceOnUse" x1="-160.1443" y1="307.3926" x2="-116.6536" y2="307.3926" gradientTransform="matrix(1 0 0 -1 214.3999 414.0996)">
        <stop offset="0" style="stop-color:#257AFF"></stop>
        <stop offset="1" style="stop-color:#4563B2"></stop>
      </linearGradient>
      <path d="M 72.848 106.299 C 65.926 106.299 60.274 107.652 54.255 110.14 C 63.833 104.714 74.893 101.614 86.672 101.614 C 90.444 101.614 94.142 101.935 97.741 102.543 C 102.024 84.687 110.8 68.586 122.803 55.505 C 122.865 55.436 122.93 55.366 122.993 55.299 C 123.035 55.254 123.08 55.208 123.123 55.162 C 109.956 71.274 101.968 92.248 101.968 115.238 C 101.968 136.739 113.939 199.438 182.267 207.209 C 186.586 207.864 191.174 208.285 195.684 208.285 L 195.762 208.287 C 196.073 208.287 196.268 208.287 196.268 208.287 C 196.342 208.287 196.411 208.287 196.488 208.287 C 207.189 208.287 243.431 206.335 249.998 177.546 C 256.309 149.894 224.758 139.752 222.26 138.995 L 224.215 139.545 C 235.093 141.967 241.554 144.757 246.46 148.058 C 246.453 148.047 246.444 148.038 246.433 148.027 C 250.099 150.228 253.27 152.837 255.94 155.868 C 256.613 156.633 257.246 157.434 257.85 158.263 C 257.856 158.268 257.864 158.276 257.87 158.282 C 257.87 158.282 257.87 158.287 257.871 158.29 C 259.886 161.056 261.524 164.17 262.785 167.64 C 264.425 172.164 265.247 177.468 265.246 183.552 C 265.246 191.319 263.604 198.284 260.322 204.449 C 259.613 205.78 258.845 207.068 258.019 208.313 L 281.369 208.293 C 313.037 208.293 338.52 183.049 338.52 151.297 C 338.52 146.026 337.811 140.921 336.487 136.073 C 336.484 136.067 336.483 136.059 336.481 136.051 C 339.69 144.235 341.227 153.31 341.227 162.643 C 341.227 200.453 315.967 233.722 275.894 233.722 L 203.092 233.722 C 203.079 233.722 203.067 233.723 203.054 233.723 L 200.857 233.723 C 174.363 233.723 150.429 224.211 131.82 208.289 C 115.057 193.755 102.842 174.24 97.618 151.957 C 97.44 151.424 97.253 150.896 97.055 150.374 C 95.483 143.044 94.657 135.41 94.657 127.549 C 94.657 122.146 95.216 117.053 95.92 112.022 C 95.931 111.947 95.942 111.873 95.953 111.798 C 89.012 108.281 81.161 106.299 72.848 106.299 Z M 200.967 21.114 C 239.317 21.114 272.919 41.493 291.572 72.033 C 291.61 72.04 291.647 72.048 291.685 72.053 C 291.736 72.143 291.788 72.229 291.839 72.319 C 295.267 80.046 297.665 88.106 299.378 96.666 C 299.018 96.544 298.656 96.428 298.296 96.318 C 292.888 94.622 287.138 93.706 281.174 93.706 C 280.065 93.706 278.963 93.741 277.873 93.803 C 274.17 83.1 268.41 73.359 261.072 65.033 C 245.582 40.041 218.921 23.435 188.602 23.435 C 182.911 23.435 177.349 24.023 171.965 25.133 C 181.183 22.516 190.91 21.113 200.967 21.114 Z M 81.391 165.027 L 86.079 180.903 L 66.967 180.903 L 71.126 165.122 C 69.176 163.594 67.92 161.204 67.92 158.518 C 67.92 153.899 71.626 150.155 76.199 150.155 C 80.772 150.155 84.476 153.899 84.476 158.518 C 84.476 161.149 83.272 163.494 81.391 165.027 Z" style="fill: rgb(111, 111, 111);"></path>
      <path d="M 72.848 106.799 C 65.984 106.799 60.428 108.126 54.446 110.602 L 54.009 109.705 C 63.642 104.256 74.826 101.114 86.672 101.114 C 90.466 101.114 93.889 101.412 97.365 101.974 C 101.71 84.236 110.395 68.299 122.433 55.169 C 122.498 55.097 122.564 55.025 122.628 54.957 C 122.674 54.908 122.719 54.862 122.758 54.821 L 123.51 55.478 C 110.383 71.521 102.468 92.337 102.468 115.238 C 102.468 125.953 105.44 146.865 116.924 166.116 C 128.418 185.384 148.315 202.89 182.342 206.715 C 186.646 207.368 191.21 207.786 195.697 207.785 L 195.768 207.787 C 196.076 207.787 196.268 207.787 196.268 207.787 C 196.342 207.787 196.411 207.787 196.488 207.787 C 201.828 207.787 213.474 207.303 224.622 203.243 C 235.778 199.179 246.325 191.682 249.511 177.435 C 251.084 170.611 250.301 164.951 248.219 160.163 C 246.14 155.382 242.79 151.589 239.115 148.571 C 231.775 142.543 223.36 139.851 222.115 139.474 L 222.395 138.514 L 224.337 139.06 C 232.86 140.962 238.716 143.101 243.228 145.529 L 243.197 145.498 L 243.437 145.642 C 243.626 145.745 243.812 145.849 243.997 145.953 L 244.043 146.007 L 246.502 147.485 C 246.582 147.538 246.661 147.59 246.739 147.643 L 246.519 147.495 L 246.69 147.598 C 250.387 149.821 253.617 152.479 256.315 155.538 C 256.985 156.3 257.622 157.104 258.223 157.926 L 258.17 157.879 C 258.193 157.899 258.218 157.922 258.224 157.928 L 258.228 157.933 C 258.237 157.945 258.246 157.957 258.254 157.969 L 258.228 157.933 L 258.327 158.031 L 258.335 158.077 L 258.275 157.996 C 258.295 158.023 258.315 158.05 258.335 158.078 L 258.37 158.282 C 258.37 158.282 258.357 158.208 258.345 158.132 L 258.338 158.082 C 260.344 160.858 261.993 164.004 263.255 167.47 C 264.907 172.04 265.744 177.43 265.746 183.552 C 265.739 191.376 264.068 198.459 260.763 204.684 C 260.048 206.026 259.585 206.797 258.94 207.812 L 281.369 207.793 C 297.102 207.814 311.202 201.564 321.467 191.348 C 331.733 181.131 338.02 167.071 338.02 151.297 C 338.02 146.06 337.322 141.021 336.005 136.205 L 335.966 136.064 L 335.991 136.143 L 335.229 131.482 L 336.946 135.868 C 340.169 144.102 341.727 153.268 341.727 162.643 C 341.727 181.632 335.349 199.577 323.965 212.689 C 312.58 225.803 296.044 234.195 275.894 234.222 L 203.092 234.222 C 203.1 234.221 203.088 234.222 203.054 234.223 L 200.857 234.223 C 174.271 234.205 150.172 224.631 131.492 208.667 C 114.681 194.077 102.395 174.443 97.137 152.094 C 96.96 151.565 96.784 151.068 96.587 150.551 L 96.574 150.516 L 96.566 150.479 C 94.99 143.123 94.157 135.437 94.157 127.549 C 94.157 122.167 94.71 117.078 95.407 112.083 C 88.598 108.687 80.972 106.799 72.848 106.799 Z M 96.179 111.352 L 96.5 111.514 L 96.448 111.871 C 96.437 111.946 96.426 112.019 96.415 112.093 C 95.712 117.116 95.157 122.173 95.157 127.549 C 95.157 135.383 95.968 142.928 97.536 150.232 C 97.731 150.748 97.913 151.261 98.092 151.799 C 103.285 174.006 115.432 193.433 132.146 207.91 C 150.685 223.789 174.455 233.241 200.857 233.223 L 203.054 233.223 C 203.046 233.224 203.058 233.223 203.092 233.222 L 275.894 233.222 C 295.817 233.249 311.948 225.006 323.21 212.033 C 334.475 199.059 340.727 181.464 340.727 162.643 C 340.727 156.4 340.042 150.296 338.624 144.495 C 338.885 146.729 339.02 149 339.02 151.297 C 339.02 167.275 332.566 181.713 322.173 192.056 C 311.78 202.4 297.304 208.772 281.369 208.793 L 257.086 208.814 L 257.602 208.037 C 258.422 206.802 259.178 205.534 259.881 204.214 C 263.14 198.109 264.753 191.262 264.746 183.552 C 264.75 177.506 263.943 172.287 262.315 167.81 C 261.069 164.375 259.466 161.325 257.472 158.592 L 257.468 158.588 L 257.466 158.585 L 257.471 158.59 C 257.47 158.588 257.468 158.586 257.467 158.584 L 257.405 158.5 L 257.397 158.448 C 257.383 158.366 257.37 158.282 257.37 158.282 L 257.403 158.499 C 256.818 157.699 256.214 156.935 255.565 156.198 C 253.528 153.882 251.21 151.829 248.589 150.012 L 248.722 150.185 L 246.181 148.473 C 242.186 145.781 237.174 143.443 229.514 141.36 C 232.611 142.852 236.3 144.965 239.75 147.798 C 243.486 150.867 246.996 154.842 249.136 159.764 C 251.273 164.677 252.067 170.655 250.485 177.657 C 247.104 192.199 236.247 200.072 224.964 204.182 C 213.674 208.295 201.849 208.787 196.488 208.787 C 196.411 208.787 196.342 208.787 196.268 208.787 C 196.268 208.787 196.073 208.787 195.762 208.787 L 195.678 208.785 C 191.147 208.784 186.535 208.361 182.201 207.705 C 147.906 203.757 127.638 186.028 116.065 166.628 C 104.482 147.212 101.468 126.024 101.468 115.238 C 101.468 97.184 106.401 80.321 114.871 66.088 C 107.147 76.933 101.428 89.288 98.227 102.66 L 98.118 103.114 L 97.658 103.036 C 94.079 102.431 90.422 102.114 86.672 102.114 C 74.96 102.114 69.069 103.93 61.252 107.242 C 64.895 106.301 65.868 105.799 72.848 105.799 C 81.222 105.799 89.186 107.816 96.179 111.352 Z M 200.967 20.614 C 239.361 20.65 273.111 41.058 291.873 71.568 L 291.991 71.577 L 292.12 71.807 C 292.167 71.89 292.241 72.02 292.296 72.116 C 295.735 79.873 298.15 87.986 299.868 96.568 L 300.038 97.418 L 299.218 97.14 C 298.861 97.019 298.503 96.904 298.146 96.795 C 292.774 95.107 287.099 94.206 281.174 94.206 C 280.073 94.206 278.985 94.24 277.901 94.302 L 277.524 94.324 L 277.4 93.966 C 273.719 83.309 268.007 73.652 260.697 65.364 L 260.669 65.332 L 260.647 65.296 C 245.237 40.385 218.789 23.935 188.602 23.935 C 182.937 23.935 177.426 24.516 172.066 25.623 L 171.828 24.652 C 181.079 22.028 190.874 20.616 200.967 20.614 Z M 183.104 23.118 C 184.924 22.997 182.885 22.935 188.602 22.935 C 219.053 22.935 245.904 39.661 261.475 64.734 C 268.827 73.091 274.493 82.674 278.221 93.284 C 279.196 93.234 280.057 93.206 281.174 93.206 C 287.177 93.206 293.002 94.137 298.446 95.841 C 298.809 95.952 298.625 95.896 298.717 95.925 C 297.023 87.702 294.804 80.234 291.392 72.545 C 291.386 72.534 291.38 72.523 291.374 72.513 L 291.62 72.549 C 291.562 72.54 291.512 72.53 291.481 72.525 L 291.369 72.504 C 291.332 72.442 291.295 72.379 291.25 72.3 L 291.366 72.504 L 291.262 72.485 L 291.145 72.294 C 272.576 41.837 239.187 21.578 200.967 21.614 C 190.946 21.61 188.908 22.127 183.104 23.118 Z M 81.962 165.195 L 86.748 181.403 L 66.318 181.403 L 70.561 165.303 C 68.687 163.684 67.42 161.32 67.42 158.518 C 67.42 156.107 68.429 153.829 69.989 152.253 C 71.55 150.676 73.81 149.655 76.199 149.655 C 78.589 149.655 80.847 150.676 82.408 152.253 C 83.968 153.829 84.976 156.107 84.976 158.518 C 84.976 161.263 83.767 163.576 81.962 165.195 Z M 80.816 164.846 L 81.075 164.639 C 82.892 163.186 83.976 161.035 83.976 158.518 C 83.976 156.31 83.132 154.406 81.697 152.956 C 80.262 151.506 78.382 150.655 76.199 150.655 C 74.016 150.655 72.135 151.506 70.7 152.956 C 69.264 154.406 68.42 156.31 68.42 158.518 C 68.42 161.088 69.552 163.281 71.434 164.728 L 71.694 164.928 L 67.616 180.403 L 85.41 180.403 Z" style="fill: none;"></path>
      <path d="M 97.819 102.049 C 97.819 102.049 96.92 101.902 96.464 101.835 C 96.009 101.767 95.549 101.704 95.09 101.646 C 94.173 101.529 93.245 101.431 92.316 101.352 C 90.459 101.195 88.57 101.114 86.672 101.114 C 74.826 101.114 63.642 104.256 54.009 109.705 L 54.446 110.602 C 60.428 108.126 65.984 106.799 72.848 106.799 C 81.101 106.799 88.84 108.746 95.729 112.245 L 96.181 111.353 C 89.188 107.816 81.223 105.799 72.848 105.799 C 65.868 105.799 64.903 106.297 61.264 107.237 C 69.078 103.928 74.96 102.114 86.672 102.114 C 88.548 102.114 90.395 102.193 92.232 102.349 C 93.15 102.427 94.057 102.523 94.964 102.638 C 95.418 102.695 95.867 102.757 96.318 102.824 C 96.768 102.891 97.673 103.039 97.673 103.039 C 97.67 103.038 97.822 102.05 97.819 102.049 Z" style="fill: none;"></path>
      <linearGradient id="SVGID_15_" gradientUnits="userSpaceOnUse" x1="1.634" y1="248.3105" x2="115.8329" y2="206.7457" gradientTransform="matrix(1 0 0 -1 214.3999 414.0996)">
        <stop offset="0" style="stop-color:#4563B2"></stop>
        <stop offset="1" style="stop-color:#257AFF"></stop>
      </linearGradient>
      <path d="M 200.039 208.362 L 200.039 233.722 L 200.039 234.222 L 200.539 234.222 L 275.894 234.222 C 296.044 234.195 312.58 225.803 323.965 212.689 C 335.349 199.577 341.727 181.632 341.727 162.643 C 341.727 153.268 340.169 144.102 336.946 135.868 L 335.229 131.482 L 335.996 136.172 C 335.992 136.151 336.012 136.21 336.04 136.297 L 335.966 136.064 L 336.005 136.205 C 337.322 141.021 338.02 146.06 338.02 151.297 C 338.02 167.071 331.733 181.131 321.467 191.348 C 311.202 201.564 297.102 207.814 281.369 207.793 L 281.369 208.793 C 297.304 208.772 311.78 202.4 322.173 192.056 C 332.566 181.713 339.02 167.275 339.02 151.297 C 339.02 145.992 338.3 140.821 336.969 135.941 L 337.136 136.554 L 336.934 135.849 C 336.956 135.924 336.974 135.967 336.966 135.93 L 336.016 136.234 C 339.211 144.368 340.727 153.352 340.727 162.643 C 340.727 181.464 334.475 199.059 323.21 212.033 C 311.948 225.006 295.817 233.249 275.894 233.222 L 201.039 233.222 L 201.039 208.362 Z" style="fill: none;"></path>
      <linearGradient id="SVGID_16_" gradientUnits="userSpaceOnUse" x1="-95.4612" y1="356.5205" x2="7.0729" y2="178.9263" gradientTransform="matrix(1 0 0 -1 214.3999 414.0996)">
        <stop offset="0.3507" style="stop-color:#4563B2"></stop>
        <stop offset="1" style="stop-color:#257AFF"></stop>
      </linearGradient>
      <path d="M 265.746 183.552 C 265.739 191.376 264.068 198.459 260.763 204.684 C 257.448 210.894 252.834 216.219 246.99 220.58 C 241.145 224.929 234.199 228.271 226.234 230.568 C 219.126 232.611 211.386 234.001 203.054 234.223 L 200.857 234.223 C 174.271 234.205 150.172 224.631 131.492 208.667 C 114.681 194.077 102.395 174.443 97.137 152.094 C 96.96 151.565 96.784 151.068 96.587 150.551 L 96.574 150.516 L 96.566 150.479 C 94.99 143.123 94.157 135.437 94.157 127.549 C 94.157 122.119 94.72 116.988 95.425 111.95 C 98.594 90.238 108.301 70.585 122.433 55.169 C 122.498 55.097 122.564 55.025 122.628 54.957 C 122.674 54.908 122.719 54.862 122.758 54.821 L 123.51 55.478 C 110.383 71.521 102.468 92.337 102.468 115.238 C 102.468 125.953 105.44 146.865 116.924 166.116 C 128.418 185.384 148.315 202.89 182.342 206.715 C 186.646 207.368 191.21 207.786 195.697 207.785 L 195.768 207.787 C 196.076 207.787 196.268 207.787 196.268 207.787 C 196.342 207.787 196.411 207.787 196.488 207.787 C 201.828 207.787 213.474 207.303 224.622 203.243 C 235.778 199.179 246.325 191.682 249.511 177.435 C 251.084 170.611 250.301 164.951 248.219 160.163 C 246.14 155.382 242.79 151.589 239.115 148.571 C 231.775 142.543 223.36 139.851 222.115 139.473 L 222.395 138.514 L 224.337 139.06 C 232.86 140.962 238.716 143.101 243.228 145.529 L 243.197 145.498 L 243.437 145.642 C 243.626 145.745 243.812 145.849 243.997 145.953 L 244.043 146.007 L 246.502 147.485 C 246.582 147.538 246.661 147.59 246.739 147.643 L 246.519 147.495 L 246.69 147.598 C 250.387 149.821 253.617 152.479 256.315 155.538 C 256.985 156.3 257.622 157.104 258.223 157.926 L 258.17 157.879 C 258.193 157.899 258.218 157.922 258.224 157.928 L 258.228 157.933 C 258.237 157.945 258.246 157.957 258.254 157.969 L 258.228 157.933 L 258.327 158.031 L 258.335 158.077 L 258.275 157.996 C 258.295 158.023 258.315 158.05 258.335 158.078 L 258.37 158.282 C 258.37 158.282 258.357 158.208 258.345 158.132 L 258.338 158.082 C 260.344 160.858 261.993 164.004 263.255 167.47 C 264.907 172.04 265.744 177.43 265.746 183.552 Z M 262.315 167.81 C 261.069 164.375 259.466 161.325 257.472 158.592 L 257.468 158.588 L 257.466 158.585 L 257.471 158.59 C 257.47 158.588 257.468 158.586 257.467 158.584 L 257.405 158.5 L 257.397 158.448 C 257.383 158.366 257.37 158.282 257.37 158.282 L 257.403 158.499 C 256.818 157.699 256.213 156.935 255.565 156.198 C 253.527 153.882 251.21 151.829 248.589 150.012 L 248.722 150.185 L 246.181 148.473 C 242.186 145.781 237.174 143.443 229.514 141.361 C 232.611 142.852 236.3 144.965 239.75 147.798 C 243.486 150.867 246.996 154.842 249.136 159.764 C 251.273 164.677 252.067 170.655 250.485 177.657 C 247.104 192.199 236.247 200.072 224.964 204.182 C 213.674 208.295 201.849 208.787 196.488 208.787 C 196.411 208.787 196.342 208.787 196.268 208.787 C 196.268 208.787 196.073 208.787 195.762 208.787 L 195.678 208.785 C 191.147 208.784 186.535 208.361 182.201 207.705 C 147.906 203.757 127.638 186.028 116.065 166.628 C 104.482 147.212 101.468 126.024 101.468 115.238 C 101.468 97.178 106.404 80.31 114.879 66.074 C 105.358 79.436 98.878 95.09 96.415 112.092 C 95.712 117.116 95.157 122.173 95.157 127.549 C 95.157 135.383 95.968 142.928 97.536 150.232 C 97.731 150.748 97.913 151.261 98.092 151.799 C 103.285 174.006 115.432 193.433 132.146 207.91 C 150.685 223.789 174.455 233.241 200.857 233.223 L 203.047 233.223 C 211.301 233.008 218.9 231.639 225.958 229.606 C 233.845 227.339 240.629 224.077 246.392 219.778 C 252.158 215.491 256.628 210.332 259.881 204.214 C 263.14 198.109 264.753 191.262 264.746 183.552 C 264.75 177.506 263.943 172.287 262.315 167.81 Z" style="fill: none;"></path>
      <linearGradient id="SVGID_17_" gradientUnits="userSpaceOnUse" x1="-42.4353" y1="355.209" x2="84.9773" y2="355.209" gradientTransform="matrix(1 0 0 -1 214.3999 414.0996)">
        <stop offset="0" style="stop-color:#257AFF"></stop>
        <stop offset="1" style="stop-color:#4563B2"></stop>
      </linearGradient>
      <path d="M 200.967 20.614 C 239.361 20.65 273.111 41.058 291.873 71.568 L 291.991 71.577 L 292.12 71.807 C 292.167 71.89 292.241 72.02 292.296 72.116 C 295.735 79.873 298.15 87.986 299.868 96.568 L 300.038 97.418 L 299.218 97.14 C 298.861 97.019 298.503 96.904 298.146 96.795 C 292.774 95.107 287.099 94.206 281.174 94.206 C 280.073 94.206 278.985 94.24 277.901 94.302 L 277.524 94.324 L 277.4 93.966 C 273.719 83.309 268.007 73.652 260.697 65.364 L 260.669 65.332 L 260.647 65.296 C 245.237 40.385 218.789 23.935 188.602 23.935 C 182.937 23.935 177.426 24.516 172.066 25.623 L 171.828 24.652 C 181.079 22.028 190.874 20.616 200.967 20.614 Z M 183.104 23.118 C 184.924 22.997 182.885 22.935 188.602 22.935 C 219.053 22.935 245.904 39.661 261.475 64.734 C 268.827 73.091 274.493 82.674 278.221 93.284 C 279.196 93.234 280.057 93.206 281.174 93.206 C 287.177 93.206 293 94.136 298.444 95.84 C 298.805 95.951 298.625 95.896 298.717 95.925 C 297.023 87.702 294.809 80.241 291.392 72.545 C 291.386 72.534 291.38 72.523 291.374 72.513 L 291.62 72.549 C 291.562 72.54 291.512 72.53 291.481 72.525 L 291.369 72.504 C 291.332 72.442 291.295 72.379 291.25 72.3 L 291.366 72.504 L 291.262 72.485 L 291.145 72.294 C 272.576 41.837 239.187 21.578 200.967 21.614 C 190.946 21.61 188.908 22.127 183.104 23.118 Z" style="fill: none;"></path>
      <linearGradient id="SVGID_18_" gradientUnits="userSpaceOnUse" x1="-137.8782" y1="233.1973" x2="-137.8782" y2="263.9443" gradientTransform="matrix(1 0 0 -1 214.3999 414.0996)">
        <stop offset="0" style="stop-color:#257AFF"></stop>
        <stop offset="1" style="stop-color:#4563B2"></stop>
      </linearGradient>
      <path d="M 81.962 165.195 L 86.748 181.403 L 66.318 181.403 L 70.561 165.303 C 68.687 163.684 67.42 161.32 67.42 158.518 C 67.42 156.107 68.429 153.829 69.989 152.253 C 71.55 150.676 73.81 149.655 76.199 149.655 C 78.589 149.655 80.847 150.676 82.408 152.253 C 83.968 153.829 84.976 156.107 84.976 158.518 C 84.976 161.263 83.767 163.576 81.962 165.195 Z M 80.816 164.846 L 81.075 164.639 C 82.892 163.186 83.976 161.035 83.976 158.518 C 83.976 156.31 83.132 154.406 81.697 152.956 C 80.262 151.506 78.382 150.655 76.199 150.655 C 74.016 150.655 72.135 151.506 70.7 152.956 C 69.264 154.406 68.42 156.31 68.42 158.518 C 68.42 161.088 69.552 163.281 71.434 164.728 L 71.694 164.928 L 67.616 180.403 L 85.41 180.403 Z" style="fill: none;"></path>
    </g>
  </g>
</svg>