<svg xmlns="http://www.w3.org/2000/svg" xmlns:xlink="http://www.w3.org/1999/xlink" width="300" height="60"><defs><path id="a" d="M1.848 54.92.002 5.723A2.997 2.997 0 0 1 2.81 2.621L44.654.006a2.997 2.997 0 0 1 3.183 2.99v53.607a2.997 2.997 0 0 1-3.13 2.994L4.707 57.801a2.997 2.997 0 0 1-2.86-2.882Z"/><path id="c" d="M1.848 54.92.002 5.723A2.997 2.997 0 0 1 2.81 2.621L44.654.006a2.997 2.997 0 0 1 3.183 2.99v53.607a2.997 2.997 0 0 1-3.13 2.994L4.707 57.801a2.997 2.997 0 0 1-2.86-2.882Z"/></defs><g fill="none" fill-rule="evenodd"><path fill="#333" fill-rule="nonzero" d="M80.387 47.178c-2.543 0-4.99-.342-7.343-1.025-2.352-.684-4.307-1.63-5.864-2.837l2.384-5.293c3.242 2.257 6.882 3.386 10.919 3.386 2.097 0 3.71-.342 4.84-1.026 1.128-.683 1.692-1.629 1.692-2.836 0-1.081-.517-1.924-1.55-2.528-1.033-.603-2.869-1.192-5.507-1.764-2.956-.604-5.316-1.335-7.08-2.193-1.765-.858-3.052-1.915-3.862-3.17-.811-1.256-1.216-2.806-1.216-4.65 0-2.034.564-3.846 1.692-5.435 1.129-1.59 2.71-2.837 4.744-3.743 2.035-.906 4.387-1.359 7.057-1.359 2.384 0 4.68.35 6.89 1.05 2.21.699 3.965 1.636 5.269 2.812l-2.384 5.293c-3.084-2.257-6.326-3.385-9.727-3.385-1.94 0-3.465.373-4.577 1.12-1.113.747-1.67 1.772-1.67 3.075 0 .763.215 1.391.644 1.884.43.492 1.145.93 2.146 1.31 1.001.382 2.424.78 4.267 1.193 4.323.954 7.43 2.177 9.322 3.671 1.891 1.494 2.837 3.56 2.837 6.199 0 3.178-1.224 5.682-3.672 7.51-2.447 1.827-5.864 2.74-10.25 2.74Zm31.183-5.34c.731 0 1.494-.048 2.289-.143l-.382 5.244c-.922.128-1.844.191-2.765.191-3.56 0-6.159-.779-7.796-2.336-1.637-1.558-2.456-3.926-2.456-7.104v-8.964h-4.434v-5.388h4.434v-6.866h7.2v6.866h5.865v5.388h-5.865v8.916c0 2.797 1.303 4.196 3.91 4.196Zm16.736 5.292c-2.48 0-4.657-.5-6.533-1.502-1.875-1.001-3.321-2.416-4.338-4.243-1.018-1.828-1.526-3.982-1.526-6.46 0-2.48.508-4.634 1.526-6.462 1.017-1.827 2.463-3.234 4.338-4.22 1.876-.985 4.053-1.477 6.533-1.477 2.479 0 4.656.492 6.532 1.478 1.875.985 3.321 2.392 4.339 4.22 1.017 1.827 1.525 3.98 1.525 6.46s-.508 4.633-1.525 6.46c-1.018 1.828-2.464 3.243-4.34 4.244-1.875 1.002-4.052 1.502-6.531 1.502Zm0-5.483c3.496 0 5.244-2.24 5.244-6.723 0-2.257-.453-3.941-1.358-5.054-.906-1.113-2.202-1.669-3.886-1.669-3.497 0-5.245 2.241-5.245 6.723 0 4.482 1.748 6.723 5.245 6.723Zm32.327-12.969-4.053.43c-2.003.19-3.417.754-4.244 1.692-.826.938-1.24 2.185-1.24 3.743v12.206h-7.199V23.338h6.914v3.957c1.176-2.702 3.607-4.18 7.295-4.434l2.098-.143.429 5.96Zm20.92-5.292h7.056L174.496 55.33H167.2l4.481-9.87-9.63-22.075h7.485l5.912 14.876 6.103-14.876Zm23.744-.62c2.034 0 3.83.492 5.388 1.478 1.557.985 2.773 2.392 3.647 4.22.874 1.827 1.311 3.949 1.311 6.365 0 2.416-.437 4.553-1.31 6.413-.875 1.86-2.099 3.306-3.672 4.339-1.574 1.033-3.362 1.55-5.364 1.55-1.621 0-3.083-.343-4.387-1.026-1.303-.683-2.304-1.629-3.004-2.837v3.48h-7.104V13.135h7.2v13.35c.7-1.175 1.692-2.09 2.98-2.74 1.287-.652 2.726-.978 4.315-.978Zm-2.098 18.881c1.685 0 2.988-.596 3.91-1.788.922-1.192 1.382-2.869 1.382-5.03 0-2.13-.46-3.759-1.382-4.887-.922-1.129-2.225-1.693-3.91-1.693s-2.988.58-3.91 1.74c-.922 1.16-1.383 2.805-1.383 4.935 0 2.162.461 3.822 1.383 4.983.922 1.16 2.225 1.74 3.91 1.74Zm28.083 5.483c-2.479 0-4.656-.5-6.532-1.502-1.875-1.001-3.321-2.416-4.339-4.243-1.017-1.828-1.525-3.982-1.525-6.46 0-2.48.508-4.634 1.525-6.462 1.018-1.827 2.464-3.234 4.34-4.22 1.875-.985 4.052-1.477 6.531-1.477 2.48 0 4.657.492 6.533 1.478 1.875.985 3.321 2.392 4.339 4.22 1.017 1.827 1.525 3.98 1.525 6.46s-.508 4.633-1.525 6.46c-1.018 1.828-2.464 3.243-4.34 4.244-1.875 1.002-4.052 1.502-6.532 1.502Zm0-5.483c3.497 0 5.245-2.24 5.245-6.723 0-2.257-.453-3.941-1.359-5.054-.906-1.113-2.2-1.669-3.886-1.669-3.496 0-5.244 2.241-5.244 6.723 0 4.482 1.748 6.723 5.244 6.723Zm26.844 5.483c-2.48 0-4.656-.5-6.532-1.502-1.875-1.001-3.322-2.416-4.339-4.243-1.017-1.828-1.525-3.982-1.525-6.46 0-2.48.508-4.634 1.525-6.462 1.017-1.827 2.464-3.234 4.34-4.22 1.875-.985 4.052-1.477 6.531-1.477 2.48 0 4.657.492 6.532 1.478 1.876.985 3.322 2.392 4.34 4.22 1.017 1.827 1.525 3.98 1.525 6.46s-.508 4.633-1.526 6.46c-1.017 1.828-2.463 3.243-4.339 4.244-1.875 1.002-4.052 1.502-6.532 1.502Zm0-5.483c3.497 0 5.245-2.24 5.245-6.723 0-2.257-.453-3.941-1.359-5.054-.906-1.113-2.201-1.669-3.886-1.669-3.496 0-5.244 2.241-5.244 6.723 0 4.482 1.748 6.723 5.244 6.723ZM299 46.749h-8.82l-8.965-10.442v10.442h-7.2V13.134h7.2v20.217l8.63-9.965h8.583l-9.822 11.157L299 46.749Z"/><path fill="#FF4785" fill-rule="nonzero" d="M48.831 2.81c.004.062.006.124.006.187v53.606a2.997 2.997 0 0 1-3.13 2.994L5.707 57.801a2.997 2.997 0 0 1-2.86-2.882L1.002 5.724A2.997 2.997 0 0 1 3.81 2.621L36.609.57l-.285 6.756a.447.447 0 0 0 .05.223l.04.066c.15.196.43.235.627.085l2.623-1.99 2.217 1.746a.447.447 0 0 0 .723-.367L42.356.211l3.298-.205A2.997 2.997 0 0 1 48.83 2.81Z"/><g transform="translate(1)"><mask id="b" fill="#fff"><use xlink:href="#a"/></mask><path fill="#FFF" fill-rule="nonzero" d="M35.324 7.326 35.61.569l5.746-.36.248 6.88a.447.447 0 0 1-.723.367L38.664 5.71 36.041 7.7a.447.447 0 0 1-.717-.374Z" mask="url(#b)"/></g><g transform="translate(1)"><mask id="d" fill="#fff"><use xlink:href="#c"/></mask><path fill="#FFF" fill-rule="nonzero" d="M27.975 22.464c0 1.166 7.853.607 8.907-.212 0-7.939-4.26-12.11-12.06-12.11-7.801 0-12.172 4.236-12.172 10.591 0 11.069 14.938 11.28 14.938 17.318 0 1.695-.83 2.7-2.656 2.7-2.379 0-3.32-1.214-3.209-5.345 0-.896-9.073-1.175-9.35 0-.704 10.01 5.533 12.898 12.67 12.898 6.915 0 12.337-3.686 12.337-10.36 0-11.862-15.159-11.544-15.159-17.423 0-2.383 1.77-2.7 2.822-2.7 1.106 0 3.098.194 2.932 4.643Z" mask="url(#d)"/></g></g></svg>